<?xml version="1.0" encoding="UTF-8" standalone="no"?>
<svg xmlns="http://www.w3.org/2000/svg" height="196px" width="237px" version="1.1" xmlns:xlink="http://www.w3.org/1999/xlink" viewBox="0 0 237 196"><!-- Generator: sketchtool 55.2 (78181) - https://sketchapp.com -->
 <title>63911011-70C5-4F4F-BC97-9DB55B5E1E9C</title>
 <desc>Created with sketchtool.</desc>
 <defs>
  <rect id="path-1" rx="4" height="107.22" width="100.96" y="0" x="0"/>
  <filter id="filter-2" height="185.8%" width="191.1%" y="-21.5%" x="-45.6%" filterUnits="objectBoundingBox">
   <feMorphology operator="erode" radius="4.5" result="shadowSpreadOuter1" in="SourceAlpha"/>
   <feOffset in="shadowSpreadOuter1" result="shadowOffsetOuter1" dx="0" dy="23"/>
   <feGaussianBlur stdDeviation="16" result="shadowBlurOuter1" in="shadowOffsetOuter1"/>
   <feColorMatrix type="matrix" values="0 0 0 0 0   0 0 0 0 0   0 0 0 0 0  0 0 0 0.125983392 0" in="shadowBlurOuter1"/>
  </filter>
  <rect id="path-3" rx="4" height="75.108" width="70" y="0" x=".36122"/>
  <filter id="filter-4" height="222.5%" width="231.4%" y="-30.6%" x="-65.7%" filterUnits="objectBoundingBox">
   <feMorphology operator="erode" radius="4.5" result="shadowSpreadOuter1" in="SourceAlpha"/>
   <feOffset in="shadowSpreadOuter1" result="shadowOffsetOuter1" dx="0" dy="23"/>
   <feGaussianBlur stdDeviation="16" result="shadowBlurOuter1" in="shadowOffsetOuter1"/>
   <feColorMatrix type="matrix" values="0 0 0 0 0   0 0 0 0 0   0 0 0 0 0  0 0 0 0.125983392 0" in="shadowBlurOuter1"/>
  </filter>
  <path id="path-5" d="m2 0h64.5c3.314-6.0872e-16 6 2.6863 6 6v18c0 3.314-2.686 6-6 6h-60.5c-3.3137 0-6-2.686-6-6v-22c-1.3527e-16 -1.1046 0.89543-2 2-2z"/>
  <filter id="filter-6" height="226.7%" width="152.4%" y="-90%" x="-26.2%" filterUnits="objectBoundingBox">
   <feMorphology operator="erode" radius="2.5" result="shadowSpreadOuter1" in="SourceAlpha"/>
   <feOffset in="shadowSpreadOuter1" result="shadowOffsetOuter1" dx="0" dy="-8"/>
   <feGaussianBlur stdDeviation="7.5" result="shadowBlurOuter1" in="shadowOffsetOuter1"/>
   <feColorMatrix type="matrix" values="0 0 0 0 0   0 0 0 0 0   0 0 0 0 0  0 0 0 0.140952797 0" in="shadowBlurOuter1"/>
  </filter>
  <rect id="path-7" rx="4" height="66.78" width="62.88" y="0" x="0"/>
  <filter id="filter-8" height="237.8%" width="246.3%" y="-34.4%" x="-73.2%" filterUnits="objectBoundingBox">
   <feMorphology operator="erode" radius="4.5" result="shadowSpreadOuter1" in="SourceAlpha"/>
   <feOffset in="shadowSpreadOuter1" result="shadowOffsetOuter1" dx="0" dy="23"/>
   <feGaussianBlur stdDeviation="16" result="shadowBlurOuter1" in="shadowOffsetOuter1"/>
   <feColorMatrix type="matrix" values="0 0 0 0 0   0 0 0 0 0   0 0 0 0 0  0 0 0 0.125983392 0" in="shadowBlurOuter1"/>
  </filter>
  <path id="path-9" d="m85 84h18c3.31 0 6 2.686 6 6v18c0 3.31-2.69 6-6 6h-22c-1.105 0-2-0.9-2-2v-22c0-3.314 2.686-6 6-6z"/>
  <filter id="filter-10" height="376.7%" width="376.7%" y="-195%" x="-138.3%" filterUnits="objectBoundingBox">
   <feMorphology operator="erode" radius="2.5" result="shadowSpreadOuter1" in="SourceAlpha"/>
   <feOffset in="shadowSpreadOuter1" result="shadowOffsetOuter1" dx="0" dy="-17"/>
   <feGaussianBlur stdDeviation="13.5" result="shadowBlurOuter1" in="shadowOffsetOuter1"/>
   <feColorMatrix type="matrix" values="0 0 0 0 0   0 0 0 0 0   0 0 0 0 0  0 0 0 0.362844187 0" in="shadowBlurOuter1"/>
  </filter>
 </defs>
 <g id="Desktop" fill-rule="evenodd" fill="none">
  <g id="1-1-Homepage" transform="translate(-676 -1275)">
   <rect y="0" x="0" height="8667" width="1600" fill="#fff"/>
   <g id="Section-01" transform="translate(171 1098)">
    <text id="Link-Building" font-size="32" font-family="OakesGrotesk-Medium, Oakes Grotesk" letter-spacing="-.096970" line-spacing="41" font-weight="400" fill="#1D2C40">
     <tspan y="396" x="516">Link Building</tspan>
    </text>
    <g id="Rectangle-Copy-7" transform="translate(465 158)">
     <g id="Group-3-Copy" transform="translate(134 50.5)">
      <g id="Rectangle">
       <use filter="url(#filter-2)" xlink:href="#path-1" fill="black"/>
       <use xlink:href="#path-1" fill-rule="evenodd" fill="#FFFFFF"/>
      </g>
      <rect id="Rectangle" rx="3" height="46.177" width="84.527" y="8.6092" x="8.6092" fill="#E1E7EF"/>
      <path id="Shape-Copy-2" fill-rule="nonzero" fill="#fff" d="m48.838 26.61c0.778 0 1.408 0.631 1.408 1.409s-0.63 1.409-1.408 1.409-1.409-0.631-1.409-1.409 0.631-1.409 1.409-1.409zm-3.318 7.878l1.448-2.413c0.198-0.332 0.628-0.439 0.96-0.24 0.049 0.029 0.094 0.065 0.135 0.105l1.58 1.58c0.273 0.273 0.716 0.273 0.99 0 0.032-0.033 0.061-0.068 0.087-0.107l2.614-3.921c0.214-0.321 0.649-0.408 0.971-0.194 0.101 0.068 0.183 0.161 0.238 0.269l2.493 4.988c0.247 0.494 0.047 1.095-0.447 1.342-0.139 0.069-0.292 0.105-0.447 0.105h-9.765c-0.552 0-1-0.448-1-1 0-0.181 0.05-0.359 0.143-0.514z"/>
      <rect id="Rectangle-Copy-48" rx="1.5653" height="3.1306" width="65.743" y="75.917" x="14.088" fill="#E1E7EF"/>
      <rect id="Rectangle-Copy-51" rx="3.1306" height="6.2612" width="54.003" y="64.178" x="14.088" fill="#E1E7EF"/>
      <rect id="Rectangle-Copy-49" rx="1.5653" height="3.1306" width="40.698" y="90.005" x="14.088" fill="#E1E7EF"/>
      <rect id="Rectangle-Copy-50" rx="1.5653" height="3.1306" width="73.569" y="82.961" x="14.088" fill="#E1E7EF"/>
     </g>
     <g id="Group-3" transform="translate(92 19.5)">
      <g id="Rectangle">
       <use filter="url(#filter-4)" xlink:href="#path-3" fill="black"/>
       <use xlink:href="#path-3" fill-rule="evenodd" fill="#5630FF"/>
      </g>
      <rect id="Rectangle" rx="3" height="32.346" width="59.209" y="6.0306" x="6.0306" fill="#B7CEFD"/>
      <path id="Shape-Copy-2" fill-rule="nonzero" fill="#5630FF" d="m34.21 18.64c0.545 0 0.987 0.442 0.987 0.987s-0.442 0.987-0.987 0.987-0.987-0.442-0.987-0.987 0.442-0.987 0.987-0.987zm-2.052 5.064l0.604-1.006c0.199-0.331 0.629-0.439 0.96-0.24 0.049 0.03 0.095 0.065 0.135 0.105l0.736 0.736c0.273 0.274 0.717 0.274 0.99 0 0.033-0.032 0.062-0.068 0.087-0.106l1.489-2.234c0.215-0.321 0.649-0.408 0.971-0.194 0.101 0.068 0.183 0.161 0.238 0.27l1.368 2.737c0.247 0.494 0.047 1.094-0.447 1.341-0.139 0.07-0.292 0.106-0.447 0.106h-5.826c-0.553 0-1-0.448-1-1 0-0.181 0.049-0.359 0.142-0.515z"/>
      <rect id="Rectangle-Copy-48" rx="1.0965" height="2.1929" width="46.052" y="53.179" x="9.8682" fill="#B7C7FD"/>
      <rect id="Rectangle-Copy-51" rx="2.1929" height="4.3859" width="37.828" y="44.955" x="9.8682" fill="#B7C7FD"/>
      <rect id="Rectangle-Copy-49" rx="1.0965" height="2.1929" width="28.508" y="63.047" x="9.8682" fill="#B7C7FD"/>
      <rect id="Rectangle-Copy-50" rx="1.0965" height="2.1929" width="51.534" y="58.113" x="9.8682" fill="#B7C7FD"/>
     </g>
     <g id="Group-11-Copy" transform="translate(195 143.5)">
      <g id="Group-3">
       <g id="Rectangle">
        <use filter="url(#filter-6)" xlink:href="#path-5" fill="black"/>
        <use xlink:href="#path-5" fill-rule="evenodd" fill="#00BCB0"/>
       </g>
       <path id="Shape" fill-rule="nonzero" fill="#fff" d="m22.455 15.833c0.567 1.001 0.559 2.227-0.02 3.22-0.58 0.994-1.643 1.605-2.793 1.606h-3.233c-1.786 0-3.234-1.448-3.234-3.234s1.448-3.233 3.234-3.233h0.808c0.446 0 0.808-0.362 0.808-0.809 0-0.446-0.362-0.808-0.808-0.808h-0.808c-2.679 0-4.851 2.171-4.851 4.85s2.172 4.85 4.851 4.85h3.233c1.73 0.001 3.329-0.92 4.197-2.416s0.874-3.341 0.015-4.843l-0.008-0.016c-0.149-0.248-0.419-0.399-0.709-0.394-0.289 0.005-0.554 0.163-0.695 0.416s-0.136 0.562 0.013 0.811zm-12.093-1.666c-0.5664-1.001-0.5585-2.227 0.021-3.22 0.579-0.994 1.642-1.6052 2.792-1.6055h3.234c1.785 0 3.233 1.4475 3.233 3.2335s-1.448 3.233-3.233 3.233h-0.809c-0.446 0-0.808 0.362-0.808 0.809 0 0.446 0.362 0.808 0.808 0.808h0.809c2.678 0 4.85-2.171 4.85-4.85 0-2.6788-2.172-4.8503-4.85-4.8503h-3.234c-1.73-0.0006-3.3289 0.92-4.197 2.4163-0.8681 1.496-0.8736 3.341-0.0145 4.843l0.0081 0.016c0.1488 0.248 0.4187 0.399 0.7082 0.394 0.2894-0.005 0.5542-0.163 0.6952-0.416s0.136-0.562-0.013-0.811z"/>
      </g>
      <text id="1-321" font-size="13" font-family="CircularStd-Medium, Circular Std" letter-spacing="-.03" line-spacing="13" font-weight="400" fill="#FFFFFF">
       <tspan y="20.273" x="31.1455">1 321</tspan>
      </text>
     </g>
     <g id="Group-11-Copy-2" transform="translate(48.5 161.5)">
      <g id="Group-3" fill="#BCC5D1">
       <rect id="Rectangle" rx="6" transform="translate(12.102 11.507) scale(-1 1) translate(-12.102 -11.507)" height="23.014" width="24.203" y="0" x="1.7053e-13"/>
      </g>
      <g id="cursor-pointer" fill-rule="nonzero" fill="#fff" transform="translate(7.6712 6.137)">
       <path id="Shape" d="m7.3261 4.6152l-3.3539-0.6668v-2.2555c0-0.4493-0.281-0.86608-0.6866-0.93826-0.517-0.09157-0.9639 0.34196-0.9639 0.89006v4.804c0 0.114-0.0923 0.2064-0.2063 0.2064-0.1139 0-0.2063-0.0924-0.2063-0.2064v-0.7343c0-0.2279-0.1847-0.4126-0.4126-0.4126-0.456 0-0.82527 0.4037-0.82527 0.9022v1.3059c0 0.6144 0.19146 1.2108 0.54257 1.6907 0.6964 0.9514 1.805 1.5144 2.9843 1.5144h2.6186c0.4985 0 0.9208-0.367 0.9903-0.8607l0.5209-3.7022c0.1019-0.7245-0.3421-1.4061-1.0018-1.5369zm-2.9412 4.7465c-0.2279 0-0.4127-0.1848-0.4127-0.4127v-2.3324c0-0.2279 0.1848-0.4126 0.4127-0.4126s0.4126 0.1847 0.4126 0.4126v2.3324c0 0.2279-0.1847 0.4127-0.4126 0.4127zm1.6505 0c-0.2279 0-0.4127-0.1848-0.4127-0.4127v-2.3324c0-0.2279 0.1848-0.4126 0.4127-0.4126s0.4126 0.1847 0.4126 0.4126v2.3324c0 0.2279-0.1847 0.4127-0.4126 0.4127z"/>
      </g>
     </g>
     <g id="Group-3-Copy-2" transform="translate(62.5 102.5)">
      <g id="Rectangle">
       <use filter="url(#filter-8)" xlink:href="#path-7" fill="black"/>
       <use xlink:href="#path-7" fill-rule="evenodd" fill="#FFFFFF"/>
      </g>
      <rect id="Rectangle" rx="3" height="28.759" width="52.644" y="5.3619" x="5.3619" fill="#E1E7EF"/>
      <path id="Shape-Copy-2" fill-rule="nonzero" fill="#fff" d="m30.417 16.573c0.484 0 0.877 0.393 0.877 0.878 0 0.484-0.393 0.877-0.877 0.877-0.485 0-0.878-0.393-0.878-0.877 0-0.485 0.393-0.878 0.878-0.878zm-1.755 4.387l0.416-0.693c0.199-0.332 0.629-0.439 0.96-0.241 0.049 0.03 0.095 0.065 0.135 0.106l0.517 0.517c0.274 0.273 0.717 0.273 0.99 0 0.033-0.033 0.062-0.068 0.088-0.107l1.197-1.795c0.214-0.322 0.649-0.409 0.97-0.195 0.102 0.068 0.184 0.161 0.238 0.27l1.077 2.153c0.247 0.494 0.047 1.095-0.447 1.342-0.139 0.069-0.292 0.105-0.448 0.105h-4.865c-0.534 0-0.966-0.432-0.966-0.965 0-0.175 0.048-0.347 0.138-0.497z"/>
      <rect id="Rectangle-Copy-48" rx=".97489" height="1.9498" width="40.945" y="47.282" x="8.774" fill="#E1E7EF"/>
      <rect id="Rectangle-Copy-51" rx="1.9498" height="3.8996" width="33.634" y="39.97" x="8.774" fill="#E1E7EF"/>
      <rect id="Rectangle-Copy-49" rx=".97489" height="1.9498" width="25.347" y="56.056" x="8.774" fill="#E1E7EF"/>
      <rect id="Rectangle-Copy-50" rx=".97489" height="1.9498" width="45.82" y="51.669" x="8.774" fill="#E1E7EF"/>
     </g>
     <g id="Rectangle-Copy-34" transform="translate(94 99) scale(-1) translate(-94 -99)">
      <use filter="url(#filter-10)" xlink:href="#path-9" fill="black"/>
      <use xlink:href="#path-9" fill-rule="evenodd" fill="#FFFFFF"/>
     </g>
     <g id="icon-link-copy" fill-rule="nonzero" fill="#5630FF" transform="translate(86.737 92.8)">
      <path id="Shape" d="m12.592 6.8343c0.477 0.8436 0.471 1.8774-0.017 2.7149-0.489 0.8378-1.385 1.3528-2.354 1.3528h-2.7258c-1.5052 0-2.7255-1.2201-2.7255-2.7254s1.2203-2.7255 2.7255-2.7255h0.6814c0.3763 0 0.6814-0.3051 0.6814-0.6814s-0.3051-0.6814-0.6814-0.6814h-0.6814c-2.2579 0-4.0883 1.8304-4.0883 4.0883 0 2.2584 1.8304 4.0884 4.0883 4.0884h2.7258c1.458 0 2.806-0.776 3.538-2.037 0.731-1.2609 0.736-2.8164 0.012-4.0819l-0.007-0.0136c-0.125-0.2094-0.353-0.336-0.597-0.3321s-0.467 0.1377-0.586 0.3509c-0.119 0.2133-0.114 0.4736 0.011 0.683zm-10.194-1.4037c-0.4775-0.8436-0.4708-1.8774 0.0173-2.7149 0.4882-0.8375 1.3845-1.3526 2.3539-1.3529h2.7255c1.5053 0 2.7258 1.2202 2.7258 2.7255s-1.2205 2.7255-2.7258 2.7255h-0.6814c-0.3763 0-0.6813 0.3051-0.6813 0.6814s0.305 0.6814 0.6813 0.6814h0.6814c2.2579 0 4.0888-1.8304 4.0888-4.0883s-1.8309-4.0883-4.0888-4.0883l-2.7255-3.1553e-7c-1.4581-0.00057126-2.8061 0.77546-3.5379 2.0367-0.73167 1.2612-0.73631 2.8166-0.0121 4.0821l0.0068 0.0137c0.1254 0.2093 0.3529 0.3359 0.5969 0.332s0.4674-0.1377 0.586-0.3509c0.1186-0.2133 0.1144-0.4736-0.0109-0.683z"/>
     </g>
    </g>
    <path id="Path-2-Copy" stroke-linejoin="round" d="m736.1 394.31c32.35-19.74 61.97-26 88.85-18.76 32.05 8.62 57.89 25.33 77.52 50.12" transform="translate(819.29 399.15) rotate(199) translate(-819.29 -399.15)" stroke="#CDD4DF" stroke-linecap="round" stroke-dasharray="2,10" stroke-width="2.5"/>
   </g>
  </g>
 </g>
</svg>
