<?xml version="1.0" encoding="UTF-8"?>
<svg width="24px" height="20px" viewBox="0 0 24 20" version="1.1" xmlns="http://www.w3.org/2000/svg" xmlns:xlink="http://www.w3.org/1999/xlink">
    <!-- Generator: Sketch 55.2 (78181) - https://sketchapp.com -->
    <title>sidebar</title>
    <desc>Created with Sketch.</desc>
    <g id="Desktop" stroke="none" stroke-width="1" fill="none" fill-rule="evenodd">
        <g id="1-1-Homepage" transform="translate(-1003.000000, -3108.000000)">
            <g id="Section-03" transform="translate(124.398379, 2829.500000)">
                <g id="sidebar" transform="translate(879.601621, 279.500000)">
                    <g transform="translate(11.000000, 9.000000) rotate(-180.000000) translate(-11.000000, -9.000000) ">
                        <path d="M3,-1 L19,-1 C21.209139,-1 23,0.790861001 23,3 L23,15 C23,17.209139 21.209139,19 19,19 L3,19 C0.790861001,19 -1,17.209139 -1,15 L-1,3 C-1,0.790861001 0.790861001,-1 3,-1 Z M3,1 C1.8954305,1 1,1.8954305 1,3 L1,15 C1,16.1045695 1.8954305,17 3,17 L19,17 C20.1045695,17 21,16.1045695 21,15 L21,3 C21,1.8954305 20.1045695,1 19,1 L3,1 Z" id="Rectangle" fill="#5630FF" fill-rule="nonzero"></path>
                        <polygon id="Path" fill="#5630FF" fill-rule="nonzero" points="11 -1 11 19 13 19 13 -1"></polygon>
                        <path d="M16,6 L18,6 C18.5522847,6 19,5.55228475 19,5 C19,4.44771525 18.5522847,4 18,4 L16,4 C15.4477153,4 15,4.44771525 15,5 C15,5.55228475 15.4477153,6 16,6 Z" id="Path" fill="#9D86FF" fill-rule="nonzero"></path>
                        <path d="M16,10 L18,10 C18.5522847,10 19,9.55228475 19,9 C19,8.44771525 18.5522847,8 18,8 L16,8 C15.4477153,8 15,8.44771525 15,9 C15,9.55228475 15.4477153,10 16,10 Z" id="Path" fill="#9D86FF" fill-rule="nonzero"></path>
                        <path d="M16,14 L18,14 C18.5522847,14 19,13.5522847 19,13 C19,12.4477153 18.5522847,12 18,12 L16,12 C15.4477153,12 15,12.4477153 15,13 C15,13.5522847 15.4477153,14 16,14 Z" id="Path" fill="#9D86FF" fill-rule="nonzero"></path>
                    </g>
                </g>
            </g>
        </g>
    </g>
</svg>