<?xml version="1.0" encoding="UTF-8"?>
<svg width="20px" height="20px" viewBox="0 0 20 20" version="1.1" xmlns="http://www.w3.org/2000/svg" xmlns:xlink="http://www.w3.org/1999/xlink">
    <!-- Generator: Sketch 55.2 (78181) - https://sketchapp.com -->
    <title>user</title>
    <desc>Created with Sketch.</desc>
    <g id="Desktop" stroke="none" stroke-width="1" fill="none" fill-rule="evenodd">
        <g id="1-1-Homepage" transform="translate(-232.000000, -4196.000000)" fill-rule="nonzero">
            <g id="Section-04" transform="translate(214.000000, 4047.000000)">
                <g id="Path" transform="translate(18.000000, 149.000000)">
                    <path d="M12.4545455,10.1818182 C10.0948971,10.1818182 8.18181818,8.2687393 8.18181818,5.90909091 L8.18181818,4.27272727 C8.18181818,1.91307889 10.0948971,-8.2600593e-14 12.4545455,-8.2600593e-14 C14.8141938,-8.2600593e-14 16.7272727,1.91307889 16.7272727,4.27272727 L16.7272727,5.90909091 C16.7272727,8.2687393 14.8141938,10.1818182 12.4545455,10.1818182 Z M12.4545455,8.18181818 C13.7096243,8.18181818 14.7272727,7.1641698 14.7272727,5.90909091 L14.7272727,4.27272727 C14.7272727,3.01764839 13.7096243,2 12.4545455,2 C11.1994666,2 10.1818182,3.01764839 10.1818182,4.27272727 L10.1818182,5.90909091 C10.1818182,7.1641698 11.1994666,8.18181818 12.4545455,8.18181818 Z" fill="#5630FF"></path>
                    <path d="M2.45454545,5.90909091 L2.45454545,10.8181818 C2.45454545,11.3704666 2.9022607,11.8181818 3.45454545,11.8181818 C4.0068302,11.8181818 4.45454545,11.3704666 4.45454545,10.8181818 L4.45454545,5.90909091 C4.45454545,5.35680616 4.0068302,4.90909091 3.45454545,4.90909091 C2.9022607,4.90909091 2.45454545,5.35680616 2.45454545,5.90909091 Z" fill="#9D86FF"></path>
                    <path d="M1,9.36363636 L5.90909091,9.36363636 C6.46137566,9.36363636 6.90909091,8.91592111 6.90909091,8.36363636 C6.90909091,7.81135161 6.46137566,7.36363636 5.90909091,7.36363636 L1,7.36363636 C0.44771525,7.36363636 4.96047647e-13,7.81135161 4.96047647e-13,8.36363636 C4.96047647e-13,8.91592111 0.44771525,9.36363636 1,9.36363636 Z" fill="#9D86FF"></path>
                    <path d="M20,19 C20,19.5522847 19.5522847,20 19,20 L5.90909091,20 C5.35680616,20 4.90909091,19.5522847 4.90909091,19 L4.90909091,15.634 C4.90909091,14.1975453 5.79256938,12.9126347 7.13440673,12.4039794 C8.69230374,11.8131691 10.4788457,11.4545455 12.4545455,11.4545455 C14.4302452,11.4545455 16.2167872,11.8131691 17.7738502,12.4036635 C19.1161018,12.9113247 20,14.1971736 20,15.634 L20,19 Z M18,15.634 C18,15.0269117 17.6289503,14.4871279 17.0654976,14.2740206 C15.7245682,13.7654922 14.1755362,13.4545455 12.4545455,13.4545455 C10.7335547,13.4545455 9.18452274,13.7654922 7.84346083,14.2740709 C7.28001892,14.4876569 6.90909091,15.027126 6.90909091,15.634 L6.90909091,18 L18,18 L18,15.634 Z" fill="#5630FF"></path>
                </g>
            </g>
        </g>
    </g>
</svg>