<?xml version="1.0" encoding="UTF-8" standalone="no"?>
<svg xmlns="http://www.w3.org/2000/svg" height="159px" width="222px" version="1.1" xmlns:xlink="http://www.w3.org/1999/xlink" viewBox="0 0 222 159"><!-- Generator: sketchtool 55.2 (78181) - https://sketchapp.com -->
 <title>986F840D-7B6A-4005-9BD4-7BFC1736D27F</title>
 <desc>Created with sketchtool.</desc>
 <defs>
  <circle id="path-1" cy="31.5" cx="31.5" r="31.5"/>
  <circle id="path-3" cy="47" cx="47" r="47"/>
  <filter id="filter-5" height="220.2%" width="220.2%" y="-35.6%" x="-60.1%" filterUnits="objectBoundingBox">
   <feMorphology operator="erode" radius="3.5" result="shadowSpreadOuter1" in="SourceAlpha"/>
   <feOffset in="shadowSpreadOuter1" result="shadowOffsetOuter1" dx="0" dy="23"/>
   <feGaussianBlur stdDeviation="18.5" result="shadowBlurOuter1" in="shadowOffsetOuter1"/>
   <feColorMatrix type="matrix" values="0 0 0 0 0   0 0 0 0 0   0 0 0 0 0  0 0 0 0.203616696 0" in="shadowBlurOuter1"/>
  </filter>
  <circle id="path-6" cy="10" cx="10" r="10"/>
  <ellipse id="path-8" cy="19" cx="18.5" rx="18.406" ry="19"/>
  <filter id="filter-10" height="228.9%" width="233.1%" y="-46.1%" x="-66.6%" filterUnits="objectBoundingBox">
   <feOffset in="SourceAlpha" result="shadowOffsetOuter1" dx="0" dy="7"/>
   <feGaussianBlur stdDeviation="7" result="shadowBlurOuter1" in="shadowOffsetOuter1"/>
   <feColorMatrix type="matrix" values="0 0 0 0 0   0 0 0 0 0   0 0 0 0 0  0 0 0 0.084107299 0" in="shadowBlurOuter1"/>
  </filter>
  <circle id="path-11" cy="15.5" cx="15.5" r="15.5"/>
  <filter id="filter-13" height="312.9%" width="312.9%" y="-67.7%" x="-106.5%" filterUnits="objectBoundingBox">
   <feOffset in="SourceAlpha" result="shadowOffsetOuter1" dx="0" dy="12"/>
   <feGaussianBlur stdDeviation="9" result="shadowBlurOuter1" in="shadowOffsetOuter1"/>
   <feColorMatrix type="matrix" values="0 0 0 0 0.0500301033   0 0 0 0 0.284986413   0 0 0 0 0.269989202  0 0 0 0.150650131 0" in="shadowBlurOuter1"/>
  </filter>
 </defs>
 <g id="Desktop" fill-rule="evenodd" fill="none">
  <g id="1-1-Homepage" transform="translate(-207 -1153)">
   <rect y="0" x="0" height="8667" width="1600" fill="#fff"/>
   <g id="Section-01" transform="translate(171 1098)">
    <g id="Rectangle">
     <g id="002-man-1" transform="translate(64 117)">
      <mask id="mask-2" fill="white">
       <use xlink:href="#path-1"/>
      </mask>
      <use id="SVGID_1_" xlink:href="#path-1" fill-rule="nonzero" fill="#E1E7EF"/>
      <g id="Group" mask="url(#mask-2)">
       <g transform="translate(14 3)" fill-rule="nonzero">
        <path id="Path" fill="#fff" d="m35.884 63.914v0.003h-35.697l-0.00045-0.003c0-2.064 0.33316-4.052 0.95235-5.902 0.111-0.334 0.232-0.664 0.3633-0.992v-0.003c0.1279-0.327 0.269-0.648 0.4173-0.964 0.5887-1.272 1.3225-2.46 2.1737-3.549 0.2153-0.272 0.4343-0.537 0.6595-0.792 0.1109-0.131 0.2287-0.259 0.3465-0.386 0.1179-0.124 0.2357-0.248 0.3568-0.372 0.6021-0.617 1.2482-1.182 1.9279-1.702 0.3401-0.258 0.683-0.5 1.0398-0.734 0.1279-0.083 0.2556-0.165 0.3868-0.245 0.0573-0.034 0.1178-0.069 0.1751-0.103 0.1751-0.107 0.3499-0.21 0.5282-0.31 0.0069-0.007 0.0134-0.007 0.0134-0.007 0.1447-0.08 0.2861-0.166 0.4275-0.255 0.4203-0.258 0.8243-0.545 1.2083-0.861 1.234-1.006 2.257-2.274 2.991-3.718 0.232-0.458 0.437-0.933 0.609-1.422 0.427-1.22 0.66-2.533 0.66-3.904l2.601 0.014h0.006l2.669 0.014c0 1.354 0.225 2.653 0.642 3.859 0.168 0.492 0.37 0.968 0.602 1.426 0.73 1.45 1.75 2.725 2.985 3.734 0.242 0.203 0.488 0.39 0.747 0.565 0.027 0.021 0.051 0.038 0.077 0.056 0.122 0.082 0.243 0.165 0.371 0.241 0.138 0.086 0.279 0.172 0.42 0.251 0.024 0.007 0.044 0.017 0.061 0.031 0.158 0.09 0.316 0.183 0.471 0.279 0.134 0.079 0.269 0.162 0.403 0.248 0.138 0.086 0.276 0.176 0.411 0.276 0.279 0.182 0.552 0.382 0.817 0.589 0 0.003 0.004 0.003 0.004 0.003h0.003c0.34 0.258 0.67 0.534 0.993 0.816 0.323 0.283 0.633 0.579 0.932 0.886 3.244 3.307 5.246 7.876 5.246 12.933z"/>
        <path id="Path" fill="#5630FF" d="m35.884 63.914h-35.697c-0.00045-2.064 0.33271-4.052 0.9519-5.902 0.111-0.334 0.232-0.664 0.3633-0.992v-0.003c0.1279-0.327 0.269-0.648 0.4173-0.964 0.5887-1.272 1.3225-2.46 2.1737-3.549 0.2153-0.272 0.4343-0.537 0.6595-0.792 0.1109-0.131 0.2287-0.259 0.3465-0.386 0.1179-0.124 0.2357-0.248 0.3568-0.372 0.6021-0.617 1.2482-1.182 1.9279-1.702 0.3401-0.258 0.683-0.5 1.0398-0.734 0.1279-0.083 0.2556-0.165 0.3868-0.245 0.0573-0.037 0.1146-0.072 0.1715-0.106 0.1751-0.107 0.3535-0.211 0.5318-0.31 0.0069-0.007 0.0134-0.004 0.0134-0.004v-0.003c0.1447-0.083 0.2861-0.166 0.4275-0.251 0.4203-0.262 0.8243-0.552 1.2013-0.869 0.003 0.004 0.003 0.004 0.007 0.007 1.743 1.826 4.169 2.96 6.861 2.966h0.026c2.692 0 5.128-1.137 6.878-2.963l0.003-0.003c0.239 0.203 0.488 0.393 0.744 0.568 0.027 0.021 0.05 0.038 0.077 0.056 0.121 0.082 0.246 0.162 0.37 0.241 0.138 0.086 0.28 0.169 0.421 0.248 0.023 0.007 0.04 0.021 0.06 0.031 0.158 0.09 0.32 0.182 0.475 0.279 0.134 0.083 0.269 0.165 0.4 0.251 0.138 0.087 0.276 0.176 0.411 0.276 0.279 0.183 0.552 0.383 0.817 0.589h0.007c0.34 0.262 0.673 0.534 0.993 0.82 0.323 0.282 0.633 0.579 0.932 0.886 3.244 3.306 5.246 7.875 5.246 12.932z"/>
        <path id="Path" fill="#5630FF" d="m27.078 48.16l-0.003 0.003-0.367 0.383c-2.309 2.408-5.391 3.734-8.678 3.734h-0.007c-3.318-0.01-6.39-1.337-8.6879-3.741l-0.3498-0.369-0.0033-0.003c0.1751-0.107 0.3535-0.21 0.5318-0.31 0.0069-0.007 0.0134-0.003 0.0134-0.003v-0.004c0.1447-0.083 0.2861-0.165 0.4275-0.251 0.4203-0.262 0.8243-0.551 1.2013-0.868 0.003 0.003 0.003 0.003 0.007 0.006 1.743 1.826 4.169 2.96 6.861 2.967h0.026c2.692 0 5.128-1.137 6.878-2.963l0.003-0.004c0.239 0.204 0.488 0.393 0.744 0.569 0.027 0.02 0.05 0.038 0.077 0.055 0.121 0.083 0.246 0.162 0.37 0.241 0.138 0.086 0.28 0.169 0.421 0.248 0.023 0.007 0.04 0.021 0.06 0.031 0.159 0.089 0.32 0.182 0.475 0.279z"/>
        <g id="Group" transform="translate(4.2545)">
         <path id="Path" fill="#fff" d="m27.48 18.126v8.409c0 0.151-0.003 0.303-0.006 0.455-0.003 0.117-0.007 0.234-0.014 0.351-0.003 0.117-0.01 0.231-0.02 0.348-0.003 0.079-0.01 0.158-0.017 0.237-0.003 0.049-0.006 0.093-0.013 0.142-0.006 0.086-0.013 0.175-0.027 0.261-0.007 0.083-0.013 0.166-0.027 0.248-0.006 0.08-0.016 0.162-0.03 0.245-0.03 0.248-0.071 0.496-0.115 0.74-0.03 0.166-0.06 0.331-0.094 0.493-0.003 0.007-0.003 0.014-0.006 0.021-0.004 0.024-0.007 0.048-0.014 0.072-0.003 0.007-0.003 0.014-0.007 0.021 0 0.007 0 0.014-0.003 0.021-0.007 0.034-0.013 0.069-0.024 0.103-0.006 0.041-0.016 0.083-0.026 0.124-0.007 0.045-0.017 0.086-0.031 0.128-0.01 0.062-0.027 0.124-0.04 0.186-0.011 0.034-0.017 0.072-0.03 0.107-0.007 0.031-0.017 0.062-0.024 0.089-0.071 0.283-0.152 0.558-0.236 0.834-0.04 0.131-0.081 0.258-0.124 0.389-0.004 0.014-0.01 0.028-0.014 0.042-0.04 0.117-0.081 0.234-0.121 0.351-0.013 0.035-0.027 0.069-0.04 0.107-0.041 0.11-0.081 0.221-0.124 0.331-0.051 0.134-0.105 0.265-0.159 0.396-0.047 0.117-0.097 0.234-0.148 0.351-0.006 0.021-0.017 0.038-0.023 0.059-0.058 0.124-0.111 0.248-0.169 0.369-0.057 0.127-0.117 0.255-0.181 0.382-0.121 0.252-0.253 0.503-0.384 0.748l-0.181 0.331c-0.519 0.913-1.094 1.77-1.72 2.563-0.084 0.113-0.171 0.223-0.262 0.33-0.125 0.155-0.253 0.307-0.381 0.455-0.114 0.131-0.228 0.262-0.346 0.389-0.323 0.355-0.653 0.693-0.99 1.01-0.067 0.069-0.137 0.131-0.208 0.196-0.115 0.107-0.229 0.21-0.347 0.31-0.091 0.083-0.185 0.162-0.279 0.241-0.243 0.204-0.485 0.4-0.731 0.582-0.101 0.08-0.205 0.156-0.309 0.228-0.168 0.124-0.34 0.241-0.512 0.355-0.094 0.065-0.192 0.127-0.289 0.186-0.313 0.2-0.633 0.382-0.946 0.544-0.03 0.017-0.057 0.031-0.087 0.045-0.084 0.044-0.168 0.086-0.252 0.127s-0.172 0.083-0.263 0.124c-0.111 0.052-0.222 0.1-0.333 0.145-0.044 0.02-0.088 0.038-0.131 0.052-0.131 0.055-0.266 0.106-0.397 0.151-0.165 0.062-0.333 0.114-0.498 0.162-0.114 0.034-0.232 0.065-0.346 0.093-0.007 0.003-0.014 0.007-0.024 0.007-0.115 0.027-0.229 0.055-0.343 0.075-0.031 0.007-0.061 0.014-0.091 0.018-0.095 0.017-0.189 0.034-0.283 0.044-0.135 0.021-0.269 0.038-0.404 0.045-0.047 0.007-0.091 0.011-0.137 0.011-0.108 0.006-0.216 0.01-0.32 0.01h-0.01c-0.105 0-0.209-0.003-0.313-0.01-0.041 0-0.081-0.004-0.121-0.011-0.095-0.003-0.192-0.013-0.293-0.027-0.02 0-0.044-0.004-0.064-0.007-0.124-0.017-0.249-0.038-0.377-0.062-0.108-0.017-0.215-0.041-0.326-0.069-0.576-0.134-1.168-0.338-1.767-0.61-0.202-0.093-0.407-0.189-0.609-0.3-0.3129-0.158-0.6257-0.337-0.9353-0.534-0.2592-0.162-0.5184-0.334-0.774-0.516-0.128-0.094-0.2556-0.186-0.3836-0.283-0.4002-0.3-0.7976-0.627-1.1877-0.978-0.1076-0.1-0.2153-0.2-0.323-0.304-0.1077-0.099-0.2153-0.203-0.3197-0.303-0.2625-0.258-0.5181-0.527-0.7672-0.806-0.0975-0.107-0.195-0.217-0.2929-0.331-0.269-0.31-0.5318-0.63-0.7805-0.964-0.0975-0.121-0.1885-0.245-0.2792-0.369-0.3397-0.461-0.6627-0.944-0.9658-1.444-0.0808-0.134-0.1613-0.272-0.2389-0.406-0.0942-0.162-0.1849-0.327-0.2759-0.493-0.3364-0.62-0.646-1.264-0.9153-1.929-0.0403-0.096-0.0809-0.193-0.1146-0.289-0.0537-0.124-0.1008-0.251-0.1446-0.376-0.0675-0.182-0.1313-0.365-0.1918-0.548-0.06056-0.182-0.11784-0.368-0.17511-0.554-0.054-0.179-0.1044-0.358-0.15153-0.541-0.05367-0.193-0.10407-0.389-0.14792-0.589-0.00328-0.021-0.01015-0.042-0.01342-0.062-0.06382-0.275-0.12109-0.555-0.17149-0.837-0.06742-0.372-0.12109-0.751-0.16168-1.134-0.01669-0.12-0.02683-0.241-0.03698-0.361-0.01342-0.128-0.02356-0.252-0.03011-0.379-0.01669-0.231-0.026833-0.466-0.033705-0.7-0.003273-0.152-0.006873-0.303-0.006873-0.454v-8.409c0-1.926 0.38029-3.762 1.0666-5.433 0.0167-0.048 0.0369-0.093 0.0572-0.138 0.2661-0.63 0.5754-1.237 0.9288-1.815 0.054-0.093 0.111-0.183 0.1683-0.272 2.4427-3.8314 6.6658-6.3636 11.467-6.367h0.014c1.043 0 2.059 0.1207 3.035 0.3445 0.892 0.2067 1.75 0.5029 2.564 0.8786 1.11 0.5096 2.143 1.1644 3.072 1.9464 0.78 0.6544 1.491 1.3916 2.109 2.2049 0.243 0.3169 0.471 0.6436 0.687 0.9816 0.061 0.093 0.121 0.186 0.175 0.283 0.35 0.575 0.663 1.178 0.929 1.808l0.06 0.145c0.673 1.637 1.05 3.428 1.064 5.309 0.003 0.041 0.003 0.082 0.003 0.124z"/>
         <path id="Path" fill="#1D2C40" d="m27.48 26.535c0 0.151-0.003 0.303-0.006 0.455-0.003 0.117-0.007 0.234-0.014 0.351-0.003 0.117-0.01 0.231-0.02 0.348-0.003 0.079-0.01 0.158-0.017 0.237-0.003 0.049-0.006 0.093-0.013 0.142-0.006 0.086-0.013 0.175-0.027 0.261-0.007 0.083-0.016 0.166-0.027 0.248-0.006 0.08-0.016 0.162-0.03 0.245-0.03 0.248-0.071 0.496-0.115 0.74-0.026 0.145-0.053 0.286-0.084 0.428-0.003 0.031-0.01 0.058-0.016 0.086-0.004 0.024-0.007 0.048-0.014 0.072-0.003 0.007-0.003 0.014-0.007 0.021 0 0.007 0 0.014-0.003 0.021v0.007c-0.007 0.037-0.017 0.075-0.024 0.11-0.006 0.038-0.016 0.076-0.026 0.11-0.007 0.045-0.017 0.086-0.031 0.128-0.013 0.068-0.03 0.134-0.05 0.199-0.003 0.031-0.01 0.062-0.02 0.093-0.007 0.031-0.017 0.062-0.024 0.09-0.07 0.283-0.151 0.558-0.235 0.834-0.041 0.131-0.081 0.258-0.125 0.389-0.003 0.014-0.01 0.028-0.013 0.041-0.041 0.118-0.081 0.235-0.122 0.352-0.013 0.034-0.026 0.069-0.04 0.107-0.04 0.11-0.081 0.22-0.124 0.33-0.051 0.135-0.105 0.266-0.158 0.397-0.047 0.117-0.098 0.234-0.148 0.351-0.007 0.021-0.017 0.038-0.024 0.059-0.057 0.124-0.111 0.248-0.168 0.368-0.058 0.128-0.118 0.255-0.182 0.383-0.121 0.251-0.252 0.503-0.383 0.747l-0.182 0.331c-0.519 0.913-1.094 1.771-1.72 2.563-0.084 0.114-0.171 0.224-0.262 0.331-0.125 0.155-0.252 0.307-0.38 0.455-0.115 0.131-0.229 0.261-0.347 0.389-0.323 0.355-0.653 0.693-0.989 1.01-0.068 0.069-0.138 0.131-0.209 0.196-0.115 0.107-0.229 0.21-0.347 0.31-0.091 0.083-0.185 0.162-0.279 0.241-0.242 0.203-0.485 0.4-0.73 0.582-0.101 0.08-0.206 0.155-0.31 0.228-0.168 0.124-0.34 0.241-0.511 0.355-0.095 0.065-0.192 0.127-0.29 0.185-0.313 0.2-0.632 0.383-0.945 0.545-0.03 0.017-0.057 0.03-0.088 0.044-0.084 0.045-0.168 0.086-0.252 0.128-0.084 0.041-0.171 0.083-0.262 0.124-0.111 0.051-0.222 0.1-0.334 0.145-0.043 0.02-0.087 0.037-0.131 0.051-0.131 0.055-0.266 0.107-0.397 0.152-0.165 0.062-0.333 0.113-0.498 0.162-0.114 0.034-0.232 0.065-0.346 0.092-0.007 0.004-0.014 0.007-0.024 0.007-0.114 0.028-0.228 0.055-0.343 0.076-0.03 0.007-0.061 0.014-0.091 0.017-0.094 0.017-0.189 0.035-0.283 0.045-0.134 0.021-0.269 0.038-0.403 0.045-0.047 0.007-0.091 0.01-0.138 0.01-0.108 0.007-0.215 0.011-0.32 0.011h-0.01c-0.104 0-0.208-0.004-0.313-0.011-0.04 0-0.081-0.003-0.121-0.01-0.094-0.004-0.192-0.014-0.293-0.027-0.02 0-0.044-0.004-0.064-0.008-0.124-0.017-0.249-0.037-0.377-0.062-0.107-0.017-0.215-0.041-0.326-0.068-0.575-0.135-1.167-0.338-1.767-0.61-0.202-0.093-0.407-0.189-0.6087-0.3-0.3128-0.158-0.6257-0.338-0.9353-0.534-0.2592-0.159-0.5148-0.331-0.774-0.517-0.128-0.093-0.2556-0.186-0.3836-0.282-0.4002-0.3-0.7975-0.627-1.1876-0.979-0.1077-0.1-0.2154-0.199-0.3231-0.303-0.1076-0.1-0.2153-0.203-0.3197-0.303-0.2625-0.258-0.5181-0.527-0.7671-0.806-0.0976-0.107-0.1951-0.217-0.2929-0.331-0.2691-0.31-0.5319-0.63-0.7806-0.965-0.0975-0.12-0.1885-0.244-0.2791-0.368-0.3398-0.462-0.6628-0.944-0.9658-1.444-0.0809-0.134-0.1614-0.272-0.2389-0.406-0.0943-0.162-0.1849-0.328-0.2759-0.493-0.3365-0.62-0.6461-1.264-0.9154-1.929-0.0403-0.097-0.0808-0.193-0.1146-0.289-0.0536-0.124-0.1008-0.252-0.1446-0.376-0.0674-0.183-0.1312-0.365-0.1918-0.548-0.06054-0.183-0.11781-0.368-0.17508-0.554-0.054-0.18-0.1044-0.359-0.15153-0.541-0.05367-0.193-0.10407-0.39-0.14793-0.589-0.00327-0.021-0.01014-0.042-0.01341-0.062-0.06382-0.276-0.1211-0.555-0.1715-0.838-0.06741-0.372-0.12109-0.751-0.16167-1.133-0.01669-0.121-0.02683-0.241-0.03698-0.362-0.01342-0.127-0.02356-0.251-0.03011-0.379-0.01669-0.231-0.026835-0.465-0.033708-0.699-0.003273-0.152-0.006873-0.303-0.006873-0.455l2.1872 4.403 3.7584 1.678 4.4449 0.41h0.003l3.294 0.307h0.021l3.082 0.286h0.003l6.875 0.634 3.731-7.717z"/>
         <g id="Path" transform="translate(0 22.115)" fill="#1D2C40">
          <path d="m13.796 6.6315l-0.004 3.3935v0.004l-0.003 1.188v0.934l-0.003 3.1v0.003l-0.004-0.003h-0.003l-0.003-0.003-0.007-0.004-13.234-6.8965c-0.00318-0.0208-0.01005-0.0416-0.01333-0.062-0.06382-0.2754-0.12109-0.5546-0.17149-0.8374-0.06742-0.3719-0.12109-0.7509-0.16167-1.1332-0.01669-0.1206-0.02684-0.2413-0.03698-0.3619-0.01342-0.1273-0.02357-0.2516-0.03011-0.379-0.01669-0.2308-0.026838-0.4651-0.033711-0.6993-0.003273-0.1518-0.006873-0.3032-0.006873-0.4547v-4.1171c0 0.05865 0.003273 0.11729 0.003273 0.17559 0 0.04122 0.003273 0.08277 0.006873 0.12398 0.033378 0.96103 0.18851 2.0118 0.47422 3.0867 0.23204 0.8612 0.5217 1.657 0.8581 2.367v0.0034c0.8817 1.8774 2.0625 3.152 3.1497 3.3588 0.0671 0.0104 0.1378 0.0171 0.2052 0.0241 0.4205 0.0483 0.8614 0.0757 1.3156 0.0757 1.7159 0 3.2403-1.4123 4.1992-1.9843 0.007-0.0033 0.013-0.007 0.02-0.0104 0.051-0.0311 0.101-0.062 0.145-0.0931 0.013-0.0104 0.027-0.0171 0.04-0.0242 0.808-0.4721 1.972-0.7716 3.271-0.775h0.027v0.0003z"/>
          <path d="m27.485 0.30124l-0.004 4.1168c0 1.0334-0.094 2.0463-0.269 3.0281-0.07 0.3927-0.151 0.7821-0.245 1.1678l-3.106 4.5921-10.074 2.043h-0.004l-0.003 0.003v-0.003l-0.01-8.6208h0.027c1.298 0.0033 2.466 0.3032 3.274 0.775 0.013 0.0071 0.023 0.0138 0.037 0.0242 0.047 0.0308 0.097 0.0619 0.147 0.0928 0.004 0.0037 0.011 0.007 0.017 0.0104 0.963 0.5719 2.483 1.9853 4.2 1.9853 0.454 0 0.895-0.0275 1.315-0.0757 0.071-0.0071 0.138-0.0138 0.209-0.0242 1.083-0.2067 2.268-1.4813 3.146-3.3588v-0.0033c0.336-0.7097 0.626-1.5055 0.858-2.3667 0.303-1.1369 0.461-2.2464 0.481-3.2556 0.004-0.04425 0.004-0.08546 0.004-0.13036z"/>
         </g>
         <ellipse id="Oval" rx="3.3562" ry="1.0622" cy="33.203" cx="13.78" fill="#fff"/>
         <g fill="#1D2C40">
          <path id="Path" d="m27.511 12.689c-0.004 0-0.004 0.004-0.007 0.004h-27.423c-0.000164-9.9185 6.5276-9.5188 13.688-8.7025h0.007c0.508 0.0586 1.019 0.1172 1.531 0.1755 5.357 0.6099 9.717-1.7605 11.901-3.8584 2.971 2.1673 3.499 10.166 0.303 12.381z"/>
          <path id="Path" d="m4.8587 12.107l-0.074 0.238c-0.037 0.117-0.0739 0.234-0.1145 0.347-0.0337 0.094-0.0638 0.186-0.1011 0.276-0.6291 1.723-1.5814 3.301-2.7491 4.713-0.82084 0.996-1.6452 2.594-1.7293 5.037-0.006918 0.141-0.010191 0.282-0.010191 0.43v-5.023-5.433l1.1239-0.137 1.097-0.135 1.2921-0.158 1.2652-0.155z"/>
          <path id="Path" d="m27.549 12.694l-4.777-0.584 0.074 0.236c0.618 1.969 1.661 3.756 2.964 5.336 0.869 1.055 1.739 2.782 1.739 5.47v-10.458z"/>
          <ellipse id="Oval" cy="12.11" cx="13.768" rx="10.208" ry="1.981"/>
         </g>
        </g>
       </g>
      </g>
     </g>
     <g id="003-man-2" transform="translate(103 68)">
      <mask id="mask-4" fill="white">
       <use xlink:href="#path-3"/>
      </mask>
      <g id="SVGID_1_" fill-rule="nonzero">
       <use filter="url(#filter-5)" xlink:href="#path-3" fill="black"/>
       <use xlink:href="#path-3" fill="#FFFFFF"/>
      </g>
      <g id="Group-15" mask="url(#mask-4)">
       <g id="Group-2" transform="translate(25 20)">
        <g transform="translate(0)" fill-rule="nonzero">
         <path id="Path" fill="#E1E7EF" d="m36.733 59.523h-0.008c-0.86-0.645-1.761-1.219-2.709-1.737-0.025-0.016-0.049-0.032-0.081-0.04-4.486-2.455-7.525-7.19-7.525-12.634l-6.793-0.032c0 5.46-3.063 10.219-7.589 12.666 0 0-0.008 0-0.016 0.008-0.957 0.518-1.874 1.1-2.7421 1.737-5.6278 4.153-9.2695 10.793-9.2695 18.286h45.962c0-7.477-3.625-14.101-9.229-18.254z"/>
         <path id="Path" fill="#5630FF" d="m45.962 77.775h-45.962c-3.8725e-13 -7.493 3.6417-14.133 9.2695-18.286 0.8685-0.638 1.7845-1.22 2.7415-1.738 0.008-0.008 0.016-0.008 0.016-0.008 0.74-0.406 1.447-0.869 2.098-1.395 2.251 2.288 5.395 3.707 8.876 3.707 3.473 0 6.609-1.419 8.86-3.699 0.643 0.526 1.343 0.989 2.074 1.387 0.032 0.008 0.056 0.024 0.08 0.04 0.949 0.518 1.849 1.092 2.709 1.737h0.009c5.604 4.154 9.229 10.777 9.229 18.255z"/>
         <path id="Path" fill="#E1E7EF" d="m5.3429 11.118v17.897c0 12.107 10.719 21.921 17.639 21.921 6.919 0 17.639-9.814 17.639-21.921v-17.897h-35.278z"/>
         <path id="Path" fill="#1D2C40" d="m37.747 7.8239c-3.844-4.7726-9.68-7.8239-16.208-7.8239-11.597-4.9738e-14 -20.99 9.5979-20.99 21.434 0.00008 6.282 2.641 11.931 6.8579 15.849-1.0863-2.704-1.6932-5.734-1.6932-8.933 0-5.142 1.5761-9.851 4.1959-13.473 2.7794 1.225 7.2844 1.668 12.225 0.993 4.899-0.665 9.073-2.27 11.426-4.181 4.292 3.758 7.082 9.819 7.082 16.661 0 3.505-0.724 6.8-2.023 9.693 4.142-1.701 7.188-7.761 7.188-14.973 0-7.718-3.493-14.085-8.061-15.246z"/>
        </g>
       </g>
      </g>
     </g>
     <g id="004-man-3" fill-rule="nonzero" transform="translate(192 158)">
      <mask id="mask-7" fill="white">
       <use xlink:href="#path-6"/>
      </mask>
      <use id="SVGID_1_" xlink:href="#path-6" fill="#E1E7EF"/>
      <g id="Group" mask="url(#mask-7)">
       <g id="Path" transform="translate(5 4)">
        <path d="m9.8764 16.978v0.001h-9.7388l-0.00001-0.001c0-0.549 0.09089-1.077 0.25982-1.568 0.03027-0.089 0.06339-0.176 0.09911-0.264 0.03491-0.087 0.07339-0.172 0.11384-0.257 0.16062-0.337 0.36071-0.653 0.59304-0.942 0.0587-0.073 0.1184-0.143 0.1799-0.211 0.0303-0.035 0.0624-0.068 0.0946-0.102 0.0321-0.033 0.0642-0.066 0.0973-0.099 0.1643-0.164 0.3405-0.314 0.526-0.452 0.0927-0.069 0.1863-0.133 0.2836-0.195 0.0413-0.026 0.0835-0.052 0.1257-0.077 0.0248-0.014 0.0487-0.029 0.0734-0.044 0.0111-0.005 0.0212-0.011 0.0322-0.017 0.022-0.013 0.044-0.025 0.066-0.037 0.0019-0.001 0.0037-0.001 0.0037-0.001 0.0395-0.021 0.078-0.044 0.1166-0.068 0.1147-0.069 0.2249-0.145 0.3296-0.229 0.1533-0.122 0.2956-0.258 0.4232-0.407 0.1147-0.134 0.2185-0.277 0.3085-0.43 0.1001-0.167 0.1844-0.343 0.2506-0.528 0.033-0.094 0.0624-0.189 0.0863-0.287 0.0184-0.068 0.0331-0.138 0.0459-0.208 0.0312-0.176 0.0477-0.357 0.0477-0.542l0.7096 0.004h0.0037l0.1239 0.001 0.6022 0.002c0 0.181 0.0156 0.359 0.0459 0.532 0.0119 0.071 0.0276 0.142 0.0459 0.211 0.0229 0.096 0.0514 0.191 0.0835 0.282 0.0661 0.187 0.1497 0.365 0.2497 0.533 0.0817 0.139 0.1744 0.27 0.2772 0.393 0.134 0.164 0.2855 0.312 0.4517 0.445 0.0349 0.028 0.0697 0.056 0.1056 0.081 0.0321 0.024 0.0651 0.047 0.0982 0.069 0.0074 0.006 0.0138 0.01 0.0211 0.015 0.033 0.022 0.0661 0.044 0.101 0.064 0.0376 0.023 0.0762 0.046 0.1147 0.067 0.0065 0.001 0.012 0.004 0.0165 0.008 0.0808 0.045 0.1607 0.091 0.2387 0.14 0.0377 0.023 0.0753 0.046 0.1121 0.073 0.0761 0.049 0.1505 0.102 0.223 0.156 0 0.001 0.001 0.001 0.001 0.001h0.0009c0.0927 0.069 0.1826 0.142 0.2708 0.217 0.0881 0.075 0.1726 0.154 0.2543 0.236 0.8849 0.878 1.431 2.091 1.431 3.435z" fill="#ECC19C"/>
        <path d="m6.5112 10.557v2.412c0 0.38-0.0276 0.733-0.0753 1.022-0.0744 0.467-0.1992 0.772-0.3405 0.772h-2.2281c-0.1248 0-0.2368-0.238-0.3121-0.614-0.0643-0.316-0.1038-0.729-0.1038-1.18v-2.412c0-0.6811 0.0882-1.275 0.2176-1.5759 0.0588-0.1386 0.1267-0.218 0.1983-0.218h2.228c0.0826 0 0.1588 0.1029 0.223 0.2851 0.1157 0.3135 0.1929 0.8755 0.1929 1.5088z" fill="#fff"/>
        <path d="m6.9931 12.497v1.216h-4.4825v-0.902c0.0248-0.015 0.0487-0.029 0.0734-0.044 0.0111-0.005 0.0212-0.011 0.0322-0.017 0.022-0.013 0.044-0.025 0.066-0.037 0.0019-0.002 0.0037-0.002 0.0037-0.002 0.0395-0.021 0.0779-0.043 0.1166-0.067 0.1147-0.069 0.2249-0.145 0.3296-0.229 0.1533-0.122 0.2956-0.258 0.4232-0.407 0.1147-0.134 0.2185-0.277 0.3085-0.43h2.2949c0.0817 0.139 0.1744 0.27 0.2772 0.393 0.134 0.164 0.2855 0.312 0.4517 0.445 0.0348 0.028 0.0696 0.056 0.1055 0.081z" fill="#fff"/>
        <path d="m9.8764 16.978h-9.7388c-0.00001-0.549 0.09088-1.077 0.25981-1.568 0.03027-0.089 0.06339-0.176 0.09911-0.264 0.03491-0.087 0.07339-0.172 0.11384-0.257 0.16062-0.337 0.36071-0.653 0.59304-0.942 0.0587-0.073 0.1184-0.143 0.1799-0.211 0.0303-0.035 0.0624-0.068 0.0946-0.102 0.0321-0.033 0.0642-0.066 0.0973-0.099 0.1643-0.164 0.3405-0.314 0.526-0.452 0.0927-0.069 0.1863-0.133 0.2836-0.195 0.0413-0.026 0.0835-0.052 0.1257-0.077 0.0248-0.014 0.0487-0.029 0.0734-0.044 0.0111-0.005 0.0212-0.011 0.0322-0.017 0.022-0.013 0.044-0.026 0.066-0.037 0.0019-0.002 0.0037-0.001 0.0037-0.001v-0.001c0.0395-0.022 0.078-0.044 0.1166-0.067 0.1147-0.07 0.2249-0.147 0.3277-0.231 0.0009 0.001 0.0009 0.001 0.0019 0.002 0.4755 0.485 1.1374 0.786 1.8718 0.788h0.0073c0.0404 0 0.0808-0.001 0.1202-0.004 0.6866-0.03 1.3054-0.324 1.7561-0.783l0.0009-0.001c0.0652 0.054 0.1331 0.104 0.2029 0.151 0.0073 0.006 0.0137 0.01 0.021 0.015 0.0331 0.022 0.067 0.043 0.101 0.064 0.0376 0.023 0.0763 0.045 0.1147 0.066 0.0065 0.002 0.0111 0.005 0.0166 0.008 0.0808 0.045 0.1606 0.091 0.2386 0.141 0.0377 0.023 0.0753 0.046 0.1121 0.073 0.0761 0.049 0.1505 0.102 0.223 0.156h0.0019c0.0928 0.07 0.1836 0.142 0.2708 0.218 0.0881 0.075 0.1726 0.154 0.2543 0.236 0.8851 0.878 1.4312 2.091 1.4312 3.435z" fill="#5630FF"/>
        <path d="m9.9325 5.3505c0 2.0077-1.0511 3.7537-2.5979 4.6413-0.4765 0.2742-1.0006 0.4662-1.5551 0.5602-0.2121 0.036-0.4287 0.057-0.6481 0.063-0.0413 0.001-0.0826 0.002-0.1239 0.002h-0.0009c-0.2588 0-0.5122-0.021-0.7601-0.062-0.5591-0.093-1.086-0.286-1.5661-0.5624-1.5467-0.8867-2.5988-2.6336-2.5988-4.6422 0.000007-2.8359 2.0948-5.1484 4.7203-5.2618 0.0036-0.00093 0.0064-0.00093 0.0101-0.00093 0.0257-0.00089 0.0514-0.001869 0.0771-0.002759 0.0386-0.00089 0.0762-0.00178 0.1147-0.00178h0.0037c0.0395 0 0.0789 0.00089 0.1184 0.00178h0.0083c0.0275 0.00089 0.0551 0.001869 0.0826 0.003649h0.0028c0.0128 0.00089 0.0257 0.001869 0.0385 0.002759 0.0157 0.00089 0.0313 0.001869 0.0468 0.00276 2.5813 0.16564 4.6276 2.4543 4.6276 5.2564z" fill="#141720"/>
        <path d="m8.7446 3.8084v2.7829c0 0.0403-0.0009 0.0805-0.0018 0.1208-0.0009 0.0329-0.0019 0.0649-0.0038 0.0979-0.0009 0.0293-0.0028 0.0585-0.0055 0.0878-0.0009 0.021-0.0028 0.0421-0.0046 0.0632-0.0009 0.0128-0.0018 0.0248-0.0036 0.0375-0.0019 0.0229-0.0038 0.0466-0.0074 0.0695-0.0037 0.044-0.0092 0.087-0.0157 0.1309-0.0009 0.011-0.0027 0.022-0.0045 0.033-0.0028 0.0219-0.0065 0.0438-0.0101 0.0658v0.0028c-0.0055 0.032-0.011 0.0631-0.0165 0.0951-0.0082 0.0439-0.0165 0.0879-0.0257 0.1309-0.0009 0.0018-0.0009 0.0036-0.0019 0.0055-0.0009 0.0064-0.0018 0.0128-0.0037 0.0192-0.0009 0.0019-0.0009 0.0037-0.0018 0.0055-0.0045 0.0238-0.0101 0.0467-0.0156 0.0695-0.0019 0.0101-0.0036 0.0202-0.0073 0.0302-0.0028 0.0165-0.0073 0.0329-0.0111 0.0494-0.0028 0.0092-0.0045 0.0192-0.0082 0.0283-0.0019 0.0083-0.0046 0.0166-0.0064 0.0239-0.0193 0.075-0.0413 0.1482-0.0643 0.2214-0.011 0.0348-0.0221 0.0686-0.0339 0.1034-0.0009 0.0037-0.0028 0.0073-0.0037 0.0111-0.0111 0.031-0.0221 0.0622-0.033 0.0932-0.0037 0.0092-0.0074 0.0183-0.0111 0.0284-0.011 0.0293-0.0221 0.0586-0.0339 0.0879-0.0138 0.0357-0.0285 0.0705-0.0432 0.1053-0.0128 0.0311-0.0266 0.0622-0.0403 0.0933-0.0019 0.0056-0.0046 0.0101-0.0064 0.0156-0.0157 0.033-0.0303 0.0659-0.0459 0.0979-0.0157 0.0339-0.0322 0.0678-0.0496 0.1016-0.033 0.0668-0.0688 0.1336-0.1046 0.1986l-0.0497 0.0878c-0.1413 0.2425-0.2983 0.4704-0.469 0.6808-0.0229 0.0303-0.0468 0.0595-0.0716 0.0879-0.034 0.0412-0.0688 0.0814-0.1038 0.1206-0.0293 0.0331-0.0596 0.0669-0.0908 0.0989-0.0009 0.0019-0.0019 0.0027-0.0037 0.0046-0.0881 0.0947-0.1781 0.1837-0.2698 0.2677-0.0184 0.019-0.0376 0.035-0.057 0.053-0.0312 0.028-0.0624 0.055-0.0945 0.082-0.0249 0.022-0.0506 0.043-0.0762 0.064-0.0661 0.054-0.1322 0.106-0.1992 0.155-0.0276 0.021-0.056 0.041-0.0845 0.06-0.0459 0.033-0.0926 0.064-0.1395 0.094-0.0257 0.018-0.0523 0.034-0.079 0.05-0.0045 0.003-0.0083 0.005-0.0128 0.007-0.089 0.055-0.1799 0.105-0.2689 0.149-0.023 0.012-0.0459 0.023-0.0689 0.034-0.0229 0.011-0.0468 0.022-0.0716 0.033-0.0302 0.014-0.0605 0.027-0.0909 0.039-0.0119 0.005-0.0238 0.01-0.0358 0.013-0.0358 0.015-0.0725 0.029-0.1083 0.041-0.045 0.016-0.0909 0.03-0.1358 0.043-0.0312 0.009-0.0634 0.017-0.0945 0.024-0.0019 0.001-0.0037 0.002-0.0065 0.002-0.0312 0.007-0.0624 0.015-0.0935 0.02-0.0083 0.002-0.0166 0.004-0.0249 0.005-0.0257 0.004-0.0514 0.009-0.0771 0.012-0.0367 0.005-0.0734 0.01-0.1101 0.012-0.0128 0.002-0.0248 0.002-0.0377 0.002-0.0293 0.002-0.0577 0.003-0.0862 0.003h-0.0037c-0.0285 0-0.0569-0.001-0.0853-0.003-0.0111 0-0.0221-0.001-0.0332-0.002-0.0257-0.001-0.0523-0.004-0.0799-0.008-0.0055 0-0.0118-0.001-0.0174-0.001-0.034-0.005-0.0679-0.011-0.1028-0.017-0.0294-0.005-0.0588-0.011-0.0891-0.018-0.1569-0.036-0.3185-0.09-0.4819-0.162-0.1396-0.062-0.2809-0.136-0.4214-0.222-0.0083-0.004-0.0156-0.01-0.0239-0.014-0.0624-0.039-0.1258-0.08-0.1873-0.123-0.0349-0.025-0.0697-0.049-0.1047-0.075-0.1092-0.08-0.2175-0.167-0.324-0.26-0.0293-0.026-0.0587-0.053-0.0881-0.08s-0.0588-0.054-0.0872-0.081c-0.068-0.065-0.134-0.132-0.1974-0.2021-0.0045-0.0037-0.0082-0.0083-0.0118-0.0119-0.0266-0.0283-0.0532-0.0576-0.0799-0.0879-0.0735-0.0823-0.1451-0.1674-0.213-0.2561-0.0266-0.0321-0.0514-0.065-0.0762-0.098-0.0928-0.1227-0.1808-0.2508-0.2635-0.3835-0.0221-0.0357-0.0441-0.0723-0.0652-0.1079-0.0257-0.043-0.0504-0.087-0.0753-0.1309-0.0917-0.1647-0.1762-0.3358-0.2496-0.5124-0.011-0.0256-0.0221-0.0512-0.0313-0.0769-0.0147-0.0329-0.0275-0.0667-0.0394-0.0998-0.0184-0.0485-0.0358-0.097-0.0524-0.1455s-0.0321-0.0979-0.0477-0.1473c-0.0147-0.0476-0.0285-0.0951-0.0413-0.1436-0.0148-0.0513-0.0285-0.1035-0.0404-0.1565-0.0009-0.0055-0.0028-0.011-0.0038-0.0165-0.0174-0.0731-0.033-0.1473-0.0467-0.2223-0.0183-0.0989-0.0331-0.1996-0.0441-0.3011-0.0046-0.0321-0.0074-0.0641-0.01-0.0961-0.0037-0.0339-0.0065-0.0669-0.0083-0.1007-0.0046-0.0613-0.0074-0.1235-0.0092-0.1858-0.0009-0.0403-0.0018-0.0805-0.0018-0.1207v-2.7831c0-1.9884 1.5633-3.6137 3.5324-3.7198 0.0036-0.00093 0.0064-0.00093 0.0101-0.00093 0.0257-0.00089 0.0514-0.001869 0.0771-0.002759 0.0386-0.00089 0.0762-0.00178 0.1147-0.00178h0.0037c0.0395 0 0.0789 0.00089 0.1184 0.00178h0.0083c0.0275 0.00089 0.0551 0.001869 0.0826 0.003649h0.0028c0.0128 0.00089 0.0257 0.001869 0.0385 0.002759 0.0276 0.001869 0.0551 0.00365 0.0817 0.006409 0.0138 0.00089 0.0266 0.001869 0.0405 0.003652 0.0092 0.00089 0.0174 0.00187 0.0266 0.00276 0.146 0.01557 0.2892 0.03934 0.4287 0.07049 0.2433 0.05491 0.4773 0.1336 0.6995 0.23337 0.3029 0.13547 0.5847 0.30929 0.8381 0.51703 0.213 0.17387 0.4067 0.36977 0.5756 0.58567 0.492 0.625 0.7884 1.4102 0.795 2.2648 0.0008 0.011 0.0008 0.022 0.0008 0.0329z" fill="#fff"/>
        <path d="m9.5781 5.1875h-9.1412c-0.00002-2.7425 1.936-4.979 4.365-5.0989 0.0036-0.00093 0.0064-0.00093 0.0101-0.00093 0.0257-0.00089 0.0514-0.001869 0.0771-0.002759 0.0386-0.00089 0.0762-0.00178 0.1147-0.00178h0.0037c0.0395 0 0.0789 0.00089 0.1184 0.00178h0.0083c0.0275 0.00089 0.0551 0.001869 0.0826 0.003649h0.0028c0.0128 0.00089 0.0257 0.001869 0.0385 0.002759 0.0157 0.00089 0.0313 0.001869 0.0468 0.00276 0.0111 0.00089 0.023 0.001869 0.0349 0.003738 0.0138 0.00089 0.0266 0.001869 0.0405 0.003653 0.0092 0.00089 0.0174 0.00187 0.0266 0.00276 2.337 0.22509 4.1712 2.4149 4.1712 5.0833z" fill="#141720"/>
       </g>
      </g>
     </g>
     <g id="005-man-4-copy-2" transform="translate(207.5 80)">
      <mask id="mask-9" fill="white">
       <use xlink:href="#path-8"/>
      </mask>
      <g id="SVGID_1_" fill-rule="nonzero">
       <use filter="url(#filter-10)" xlink:href="#path-8" fill="black"/>
       <use xlink:href="#path-8" fill="#E1E7EF"/>
      </g>
      <g id="Group-16" mask="url(#mask-9)">
       <g transform="translate(9 7)" fill-rule="nonzero">
        <path id="Path" fill="#fff" d="m16.651 7.0493v5.2657c0 0.076-0.002 0.152-0.004 0.228-0.001 0.063-0.003 0.123-0.007 0.186-0.001 0.055-0.005 0.111-0.01 0.166-0.002 0.04-0.006 0.08-0.009 0.12-0.002 0.024-0.004 0.046-0.007 0.071-0.004 0.043-0.007 0.088-0.015 0.131-0.007 0.083-0.017 0.165-0.03 0.248-0.002 0.021-0.005 0.041-0.009 0.062-0.005 0.042-0.012 0.083-0.019 0.125v0.005c-0.011 0.06-0.021 0.119-0.032 0.18-0.016 0.083-0.032 0.166-0.05 0.248-0.002 0.003-0.002 0.007-0.003 0.01-0.002 0.012-0.004 0.024-0.007 0.037-0.002 0.003-0.002 0.006-0.004 0.01-0.009 0.045-0.019 0.088-0.03 0.132-0.004 0.019-0.007 0.038-0.014 0.057-0.006 0.031-0.015 0.062-0.022 0.093-0.005 0.018-0.008 0.037-0.016 0.054-0.003 0.015-0.008 0.031-0.012 0.045-0.037 0.142-0.08 0.281-0.124 0.419-0.022 0.066-0.043 0.13-0.066 0.196-0.002 0.007-0.005 0.013-0.007 0.02-0.021 0.059-0.043 0.118-0.064 0.177-0.007 0.017-0.014 0.035-0.021 0.054-0.022 0.055-0.043 0.11-0.066 0.166-0.027 0.067-0.055 0.133-0.083 0.199-0.025 0.059-0.052 0.118-0.078 0.177-0.004 0.01-0.009 0.019-0.013 0.029-0.03 0.062-0.058 0.125-0.089 0.186-0.03 0.064-0.062 0.128-0.096 0.192-0.063 0.126-0.133 0.253-0.202 0.375l-0.096 0.167c-0.273 0.459-0.577 0.89-0.907 1.288-0.045 0.057-0.091 0.112-0.139 0.166-0.066 0.078-0.133 0.154-0.201 0.229-0.06 0.065-0.12 0.131-0.183 0.195-0.17 0.179-0.344 0.348-0.522 0.508-0.035 0.034-0.072 0.066-0.11 0.098-0.06 0.054-0.12 0.106-0.183 0.156-0.047 0.042-0.097 0.082-0.147 0.121-0.128 0.102-0.256 0.201-0.386 0.293-0.053 0.04-0.108 0.078-0.163 0.114-0.089 0.063-0.179 0.122-0.27 0.179-0.05 0.033-0.101 0.064-0.153 0.093-0.181 0.109-0.364 0.21-0.545 0.296-0.044 0.023-0.089 0.044-0.133 0.065-0.044 0.02-0.091 0.041-0.139 0.062-0.058 0.026-0.117 0.05-0.175 0.073-0.024 0.01-0.047 0.019-0.07 0.026-0.069 0.027-0.14 0.053-0.209 0.076-0.087 0.031-0.176 0.057-0.263 0.081-0.06 0.017-0.122 0.033-0.183 0.047-0.003 0.002-0.007 0.003-0.012 0.003-0.061 0.014-0.121 0.028-0.181 0.038-0.016 0.004-0.032 0.007-0.048 0.009-0.05 0.009-0.0998 0.018-0.1495 0.023-0.071 0.01-0.1422 0.019-0.2132 0.022-0.0248 0.004-0.0478 0.005-0.0727 0.005-0.0568 0.004-0.1136 0.006-0.1687 0.006h-0.0054c-0.0549 0-0.11-0.002-0.1651-0.006-0.0213 0-0.0427-0.001-0.0639-0.005-0.0498-0.001-0.1013-0.007-0.1546-0.014-0.0106 0-0.023-0.001-0.0337-0.003-0.0656-0.009-0.1315-0.019-0.1988-0.031-0.0568-0.009-0.1137-0.021-0.1724-0.035-0.3037-0.068-0.6161-0.17-0.9322-0.306-0.27-0.116-0.5434-0.257-0.8151-0.419-0.1366-0.082-0.2734-0.168-0.4085-0.26-0.0675-0.047-0.1349-0.094-0.2024-0.142-0.2115-0.151-0.421-0.315-0.6269-0.492-0.0568-0.05-0.1136-0.1-0.1705-0.152-0.0568-0.05-0.1136-0.102-0.1687-0.153-0.1385-0.13-0.2734-0.264-0.4049-0.405-0.0515-0.053-0.1029-0.109-0.1546-0.166-0.142-0.156-0.2805-0.317-0.4119-0.485-0.0515-0.06-0.0995-0.123-0.1474-0.185-0.1794-0.232-0.3497-0.475-0.5097-0.726-0.0426-0.067-0.0853-0.136-0.1261-0.204-0.0497-0.081-0.0976-0.165-0.1456-0.248-0.1775-0.311-0.3409-0.635-0.4829-0.969-0.0214-0.049-0.0427-0.097-0.0605-0.146-0.0283-0.062-0.0532-0.126-0.0763-0.189-0.0356-0.091-0.0693-0.183-0.1012-0.275-0.032-0.092-0.0622-0.185-0.0925-0.279-0.0283-0.09-0.0549-0.18-0.0798-0.272-0.0285-0.097-0.0551-0.195-0.0782-0.296-0.0017-0.01-0.0054-0.021-0.0071-0.031-0.0337-0.138-0.0639-0.279-0.0905-0.421-0.0356-0.187-0.0639-0.377-0.0851-0.569-0.009-0.061-0.0144-0.122-0.0196-0.182-0.007-0.064-0.0124-0.127-0.016-0.191-0.0088-0.116-0.0142-0.234-0.0178-0.351-0.0017-0.076-0.0036-0.153-0.0036-0.229v-5.2657c0-3.8911 3.2338-7.0459 7.2241-7.0493l0.0073-2.8422e-14c0.5504 0 1.0872 0.060463 1.6012 0.17314 0.471 0.10374 0.924 0.2528 1.354 0.44143 0.586 0.25617 1.131 0.58543 1.621 0.97853 0.412 0.3289 0.787 0.6994 1.114 1.1082 0.951 1.1827 1.525 2.6685 1.537 4.2856 0.002 0.0208 0.002 0.0415 0.002 0.0624z"/>
        <path id="Path" fill="#fff" d="m18.841 31.969v0.001h-18.84l-0.00048182-0.001c0-1.038 0.17583-2.037 0.50263-2.967 0.05856-0.167 0.12247-0.334 0.1919-0.498v-0.002c0.06754-0.165 0.14199-0.326 0.22006-0.485 0.31069-0.639 0.69799-1.236 1.1473-1.783 0.1136-0.137 0.229-0.271 0.348-0.399 0.0586-0.066 0.1207-0.129 0.1829-0.194 0.062-0.062 0.1244-0.124 0.1881-0.187 0.318-0.31 0.6588-0.593 1.0177-0.855 0.1793-0.13 0.3605-0.251 0.5488-0.369 0.1883-0.116 0.38-0.227 0.5753-0.33 0.0037-0.004 0.0071-0.004 0.0071-0.004 0.0764-0.04 0.151-0.083 0.2256-0.128 0.222-0.13 0.4351-0.274 0.6375-0.433 0.8578-0.665 1.5219-1.558 1.9002-2.583 0.2256-0.613 0.3481-1.273 0.3481-1.962l1.3726 0.007 1.4117 0.007c0 0.68 0.119 1.333 0.339 1.939 0.373 1.029 1.036 1.926 1.894 2.594 0.127 0.102 0.257 0.196 0.394 0.284 0.014 0.01 0.026 0.019 0.041 0.028 0.064 0.041 0.127 0.083 0.195 0.121 0.073 0.043 0.147 0.087 0.222 0.126 0.012 0.004 0.023 0.009 0.032 0.016 0.156 0.085 0.311 0.173 0.462 0.265 0.072 0.043 0.145 0.088 0.216 0.138 0.148 0.092 0.291 0.193 0.432 0.297 0 0.001 0.002 0.001 0.002 0.001h0.001c0.18 0.13 0.354 0.269 0.524 0.411 0.171 0.142 0.334 0.291 0.492 0.445 1.712 1.662 2.769 3.958 2.769 6.5z"/>
        <path id="Path" fill="#5630FF" d="m18.84 31.968h-18.84c2.7001e-13 -1.037 0.17584-2.037 0.50264-2.966 0.05855-0.168 0.12263-0.334 0.19172-0.499v-0.002c0.06754-0.164 0.14216-0.325 0.22023-0.485 0.31071-0.638 0.69781-1.236 1.1472-1.783 0.1137-0.137 0.2293-0.27 0.3481-0.398 0.0585-0.066 0.1207-0.13 0.1829-0.194 0.0622-0.063 0.1244-0.125 0.1883-0.187 0.3178-0.31 0.6588-0.594 1.0175-0.856 0.1795-0.129 0.3605-0.251 0.5488-0.368 0.0976-0.061 0.1953-0.12 0.2946-0.177 0.0925-0.054 0.1866-0.106 0.2807-0.156 0.0037-0.003 0.0071-0.002 0.0071-0.002v-0.001c0.0764-0.042 0.151-0.083 0.2256-0.127 0.2219-0.131 0.4351-0.277 0.6339-0.436 0.0017 0.002 0.0017 0.002 0.0036 0.003 0.92 0.918 2.2004 1.488 3.6211 1.491h0.0143c1.4207 0 2.7067-0.571 3.6297-1.489l0.002-0.002c0.126 0.102 0.257 0.198 0.392 0.286 0.015 0.01 0.027 0.019 0.041 0.028 0.064 0.041 0.13 0.081 0.195 0.121 0.073 0.043 0.148 0.085 0.222 0.125 0.013 0.003 0.022 0.01 0.032 0.015 0.084 0.045 0.169 0.092 0.251 0.14 0.071 0.042 0.142 0.084 0.211 0.127 0.073 0.043 0.146 0.088 0.217 0.138 0.147 0.092 0.291 0.193 0.431 0.297h0.004c0.179 0.131 0.355 0.268 0.524 0.411 0.17 0.143 0.334 0.292 0.492 0.446 1.711 1.662 2.768 3.958 2.768 6.5z"/>
        <path id="Path" fill="#1D2C40" d="m16.651 12.315c0 0.076-0.002 0.152-0.004 0.228-0.001 0.063-0.003 0.123-0.007 0.186-0.001 0.055-0.005 0.111-0.01 0.166-0.002 0.04-0.006 0.08-0.009 0.12-0.002 0.024-0.004 0.046-0.007 0.071-0.004 0.043-0.007 0.088-0.015 0.131-0.009 0.083-0.017 0.166-0.03 0.248-0.002 0.021-0.005 0.041-0.009 0.062-0.005 0.042-0.012 0.083-0.019 0.125-0.009 0.062-0.021 0.124-0.032 0.185-0.014 0.073-0.029 0.144-0.044 0.215-0.002 0.015-0.006 0.029-0.009 0.043-0.002 0.012-0.006 0.024-0.008 0.037-0.001 0.003-0.001 0.006-0.003 0.01 0 0.009-0.002 0.016-0.004 0.023-0.008 0.036-0.016 0.072-0.026 0.109-0.004 0.019-0.007 0.038-0.014 0.057-0.008 0.034-0.016 0.067-0.027 0.1-0.002 0.016-0.005 0.031-0.011 0.047-0.003 0.015-0.008 0.031-0.012 0.045-0.037 0.142-0.08 0.281-0.124 0.419-0.022 0.066-0.043 0.13-0.066 0.196-0.002 0.007-0.005 0.013-0.007 0.02-0.021 0.059-0.043 0.118-0.064 0.177-0.007 0.017-0.014 0.035-0.021 0.054-0.022 0.055-0.043 0.11-0.066 0.166-0.027 0.067-0.055 0.133-0.083 0.199-0.025 0.059-0.052 0.118-0.078 0.177-0.004 0.01-0.009 0.019-0.013 0.029-0.03 0.062-0.058 0.125-0.089 0.186-0.03 0.064-0.062 0.128-0.096 0.192-0.063 0.126-0.133 0.253-0.202 0.375l-0.096 0.167c-0.273 0.459-0.577 0.89-0.907 1.288-0.045 0.057-0.091 0.112-0.139 0.166-0.066 0.078-0.133 0.154-0.201 0.229-0.06 0.065-0.12 0.131-0.183 0.195-0.17 0.179-0.344 0.348-0.522 0.508-0.035 0.034-0.072 0.066-0.11 0.098-0.06 0.054-0.12 0.106-0.183 0.156-0.047 0.042-0.097 0.082-0.147 0.121-0.128 0.102-0.256 0.201-0.386 0.293-0.053 0.04-0.108 0.078-0.163 0.114-0.089 0.063-0.179 0.122-0.27 0.179-0.05 0.033-0.101 0.064-0.153 0.093-0.181 0.109-0.364 0.21-0.545 0.296-0.044 0.023-0.089 0.044-0.133 0.065-0.044 0.02-0.091 0.041-0.139 0.062-0.058 0.026-0.117 0.05-0.175 0.073-0.024 0.01-0.047 0.019-0.07 0.026-0.069 0.027-0.14 0.053-0.209 0.076-0.087 0.031-0.176 0.057-0.263 0.081-0.06 0.017-0.122 0.033-0.183 0.047-0.003 0.002-0.007 0.003-0.012 0.003-0.061 0.014-0.121 0.028-0.181 0.038-0.016 0.004-0.032 0.007-0.048 0.009-0.05 0.009-0.0998 0.018-0.1495 0.023-0.071 0.01-0.1422 0.019-0.2132 0.022-0.0248 0.004-0.0478 0.005-0.0727 0.005-0.0568 0.004-0.1136 0.006-0.1687 0.006h-0.0054c-0.0549 0-0.11-0.002-0.1651-0.006-0.0213 0-0.0427-0.001-0.0639-0.005-0.0498-0.001-0.1013-0.007-0.1546-0.014-0.0106 0-0.023-0.001-0.0337-0.003-0.0656-0.009-0.1315-0.019-0.1988-0.031-0.0568-0.009-0.1137-0.021-0.1724-0.035-0.3037-0.068-0.6161-0.17-0.9322-0.306-0.27-0.116-0.5434-0.257-0.8151-0.419-0.1366-0.08-0.2717-0.167-0.4085-0.26-0.0675-0.047-0.1349-0.094-0.2024-0.142-0.2115-0.151-0.421-0.315-0.6269-0.492-0.0568-0.05-0.1136-0.1-0.1705-0.152-0.0568-0.05-0.1136-0.102-0.1687-0.153-0.1385-0.13-0.2734-0.264-0.4049-0.405-0.0515-0.053-0.1029-0.109-0.1546-0.166-0.142-0.156-0.2805-0.317-0.4119-0.485-0.0515-0.06-0.0995-0.123-0.1474-0.185-0.1794-0.232-0.3497-0.475-0.5097-0.726-0.0426-0.067-0.0853-0.136-0.1261-0.204-0.0497-0.081-0.0976-0.165-0.1456-0.248-0.1775-0.311-0.3409-0.635-0.4829-0.969-0.0214-0.049-0.0427-0.097-0.0605-0.146-0.0283-0.062-0.0532-0.126-0.0763-0.189-0.0356-0.091-0.0693-0.183-0.1012-0.275-0.032-0.092-0.0622-0.185-0.0925-0.279-0.0283-0.09-0.0549-0.18-0.0798-0.272-0.0285-0.097-0.0551-0.195-0.0782-0.296-0.0017-0.01-0.0054-0.021-0.0071-0.031-0.0337-0.138-0.0639-0.279-0.0905-0.421-0.0356-0.187-0.0639-0.377-0.0851-0.569-0.009-0.061-0.0144-0.122-0.0196-0.182-0.007-0.064-0.0124-0.127-0.016-0.191-0.0088-0.116-0.0142-0.234-0.0178-0.351-0.0017-0.076-0.0036-0.153-0.0036-0.229l1.1543 2.213 1.9836 0.844 2.3456 0.205h0.0018l1.7385 0.155h0.0107l1.6261 0.143s0-0.001 0.002 0l3.628 0.319 1.97-3.879z"/>
        <g id="Group" transform="translate(2.1467 10.117)" fill="#1D2C40">
         <path id="Path" d="m7.282 3.3096l-0.0017 1.7056v0.0017l-0.0017 0.5976v0.4692l-0.0018 1.5584v0.0019l-0.0017-0.0019h-0.0017l-0.0054-0.0035-6.9847-3.4666c-0.00175-0.0105-0.00538-0.0209-0.00711-0.0314-0.03368-0.1384-0.06391-0.2787-0.09051-0.4207-0.03558-0.1869-0.06391-0.3774-0.08515-0.5698-0.008985-0.0604-0.014339-0.1212-0.019521-0.1817-0.007082-0.0641-0.012436-0.1265-0.016064-0.1905-0.008809-0.116-0.014163-0.2339-0.01779-0.3516-0.001728-0.0762-0.003628-0.1523-0.003628-0.2284v-2.0692c0 0.02945 0.001728 0.05892 0.001728 0.08823 0.014163 0.50038 0.095865 1.051 0.2539 1.6138 0.12264 0.4329 0.27516 0.8329 0.45289 1.1896v0.0017c0.46535 0.9438 1.0888 1.5843 1.6622 1.6882 0.0356 0.0053 0.0727 0.0088 0.1083 0.0122 0.222 0.0242 0.4546 0.038 0.6944 0.038 0.9058 0 1.7101-0.7099 2.2162-0.9974 0.0037-0.0017 0.0071-0.0035 0.0107-0.005 0.0266-0.0157 0.0532-0.0313 0.0764-0.0468 0.0071-0.0051 0.0142-0.0086 0.0214-0.012 0.4261-0.2373 1.0407-0.388 1.7261-0.3896h0.0143z"/>
         <path id="Path" d="m14.506 0.12783l-0.002 2.0693c0 0.5194-0.05 1.0285-0.142 1.522-0.037 0.1974-0.08 0.3931-0.13 0.5869l-1.639 2.3082-5.3169 1.0269h-0.0017l-0.0017 0.0018v-0.0018l-0.0054-4.3331h0.0144c0.6853 0.0018 1.3016 0.1524 1.7278 0.3895 0.0072 0.0036 0.0124 0.0069 0.0195 0.0121 0.0248 0.0155 0.0514 0.0312 0.0782 0.0467 0.0017 0.0017 0.0054 0.0035 0.0088 0.0052 0.5078 0.2873 1.311 0.9979 2.216 0.9979 0.24 0 0.473-0.0138 0.695-0.0381 0.037-0.0035 0.072-0.0069 0.11-0.0121 0.572-0.1039 1.197-0.7446 1.66-1.6882v-0.0017c0.178-0.3567 0.33-0.7567 0.453-1.1896 0.16-0.5716 0.243-1.1291 0.254-1.6364 0.002-0.02218 0.002-0.04307 0.002-0.06547z"/>
        </g>
        <ellipse id="Oval" rx="1.7713" ry="1" cy="15.667" cx="9.4199" fill="#fff"/>
        <path id="Path" fill="#1D2C40" d="m9.4212 7.816e-14h-0.0069c-3.9903 0.0035368-7.2241 3.1584-7.2241 7.0493v3.1087s0.3-1.855 1.1082-2.7554c0.8773-0.9783 0.6553-2.4658 2.623-2.4658 1.2698 0 1.3407 0.4571 3.4914 0.4571h0.0017 0.0069 0.0017c2.1509 0 2.2219-0.4571 3.4909-0.4571 1.968 0 1.746 1.4873 2.624 2.4658 0.808 0.9004 1.108 2.7554 1.108 2.7554v-3.1087c-0.001-3.8909-3.234-7.0459-7.2248-7.0493z"/>
        <path id="Path" fill="#5630FF" d="m14.193 24.049l-0.196 0.194c-1.218 1.21-2.845 1.877-4.5797 1.877-1.7527-0.003-3.376-0.672-4.5889-1.88l-0.1865-0.187c0.0924-0.054 0.1865-0.106 0.2807-0.156 0.0036-0.004 0.007-0.002 0.007-0.002v-0.002c0.0764-0.041 0.151-0.083 0.2256-0.126 0.222-0.132 0.4351-0.277 0.6339-0.436 0.0018 0.001 0.0018 0.001 0.0037 0.003 0.9199 0.918 2.2003 1.488 3.621 1.491h0.0143c1.4209 0 2.7059-0.571 3.6299-1.489l0.002-0.002c0.126 0.102 0.257 0.198 0.392 0.286 0.014 0.01 0.027 0.019 0.041 0.027 0.064 0.042 0.13 0.082 0.195 0.122 0.073 0.043 0.148 0.085 0.222 0.124 0.013 0.004 0.022 0.011 0.032 0.016 0.084 0.045 0.169 0.092 0.251 0.14z"/>
       </g>
      </g>
     </g>
     <g id="Love" fill="#00BCB0" transform="translate(183 97.5)">
      <g id="Group-17">
       <path id="Rectangle-Copy-2" d="m9-6.6542e-12h15c4.971-9e-16 9 4.0294 9 9v15c0 4.971-4.029 9-9 9h-11.274c-3.2509 0-6.3971 1.151-8.8803 3.25l-2.2002 1.859c-0.4218 0.357-1.0528 0.304-1.4093-0.118-0.15251-0.18-0.2362-0.409-0.2362-0.645l-4.6541e-13 -28.346c-6e-16 -4.9706 4.0294-9 9-9z"/>
      </g>
     </g>
     <g id="001-feedback" fill-rule="nonzero" fill="#00BCB0" transform="translate(35.373 125.65)">
      <path id="Path" transform="translate(20.006 13.001) scale(-1 1) translate(-20.006 -13.001)" d="m31.261-2.8777e-12h-21.528c-4.9708 2.7e-15 -9.0003 4.0294-9.0003 9l0.00004 15.506c0 0.553 0.44776 1 0.99996 1 0.3086 0 0.5999-0.142 0.7894-0.386l0.8045-1.034c1.6366-2.104 4.153-3.335 6.8184-3.335h21.077c4.393 0 7.964-3.542 8-7.934l0.039-4.7513c0.036-4.4181-3.516-8.0291-7.934-8.0654-0.022-0.00021006-0.044-0.0003-0.066-0.0003z"/>
     </g>
     <g id="005-man-4" transform="translate(105 60)">
      <mask id="mask-12" fill="white">
       <use xlink:href="#path-11"/>
      </mask>
      <g id="SVGID_1_" fill-rule="nonzero">
       <use filter="url(#filter-13)" xlink:href="#path-11" fill="black"/>
       <use xlink:href="#path-11" fill="#5630FF"/>
      </g>
      <g id="Group-16" mask="url(#mask-12)">
       <g transform="translate(6.8889 1.7222)" fill-rule="nonzero">
        <path id="Path" fill="#fff" d="m15.848 7.0187v5.2433c0 0.075-0.002 0.151-0.004 0.227-0.001 0.062-0.003 0.122-0.006 0.185-0.002 0.055-0.006 0.11-0.011 0.165-0.001 0.04-0.005 0.08-0.008 0.119-0.002 0.024-0.003 0.047-0.007 0.071-0.003 0.043-0.007 0.088-0.013 0.131-0.007 0.082-0.017 0.164-0.029 0.246-0.002 0.021-0.005 0.042-0.009 0.062-0.005 0.042-0.011 0.083-0.018 0.124v0.006c-0.01 0.06-0.02 0.119-0.031 0.179-0.015 0.083-0.03 0.165-0.047 0.246-0.002 0.004-0.002 0.007-0.003 0.011-0.002 0.012-0.004 0.024-0.007 0.036-0.002 0.004-0.002 0.007-0.003 0.011-0.009 0.045-0.019 0.087-0.029 0.131-0.003 0.019-0.007 0.038-0.014 0.057-0.005 0.031-0.013 0.061-0.02 0.093-0.005 0.017-0.008 0.036-0.015 0.053-0.004 0.016-0.009 0.031-0.012 0.045-0.035 0.141-0.076 0.279-0.118 0.417-0.021 0.066-0.041 0.129-0.063 0.195-0.001 0.007-0.005 0.014-0.007 0.021-0.02 0.058-0.04 0.117-0.06 0.176-0.007 0.017-0.014 0.034-0.021 0.053-0.02 0.055-0.04 0.11-0.062 0.165-0.025 0.067-0.053 0.133-0.079 0.199-0.024 0.058-0.049 0.117-0.075 0.175-0.003 0.011-0.008 0.019-0.012 0.03-0.028 0.062-0.055 0.124-0.084 0.184-0.029 0.064-0.059 0.128-0.091 0.192-0.061 0.126-0.127 0.252-0.193 0.374l-0.091 0.165c-0.261 0.457-0.549 0.886-0.864 1.283-0.042 0.057-0.086 0.112-0.132 0.165-0.062 0.078-0.127 0.154-0.191 0.228-0.057 0.066-0.115 0.131-0.174 0.195-0.162 0.177-0.328 0.346-0.497 0.505-0.034 0.034-0.069 0.066-0.105 0.098-0.057 0.054-0.115 0.105-0.174 0.155-0.045 0.042-0.093 0.081-0.14 0.121-0.122 0.102-0.243 0.2-0.367 0.291-0.051 0.04-0.103 0.078-0.155 0.114-0.085 0.062-0.171 0.121-0.257 0.178-0.048 0.033-0.097 0.064-0.146 0.093-0.172 0.109-0.346 0.209-0.519 0.295-0.042 0.022-0.084 0.043-0.126 0.064-0.043 0.02-0.087 0.041-0.132 0.062-0.056 0.026-0.112 0.05-0.168 0.072-0.022 0.011-0.043 0.019-0.066 0.026-0.065 0.028-0.133 0.053-0.199 0.076-0.083 0.031-0.167 0.057-0.25 0.081-0.0575 0.017-0.1165 0.033-0.1741 0.046-0.0034 0.002-0.0067 0.004-0.0118 0.004-0.0575 0.014-0.1149 0.028-0.1725 0.038-0.0151 0.003-0.0304 0.007-0.0455 0.009-0.0473 0.008-0.0947 0.017-0.142 0.022-0.0676 0.011-0.1353 0.019-0.2029 0.022-0.0237 0.004-0.0455 0.006-0.0692 0.006-0.0541 0.003-0.1082 0.005-0.1606 0.005h-0.0051c-0.0523 0-0.1047-0.002-0.1572-0.005-0.0202 0-0.0406-0.002-0.0608-0.006-0.0473-0.001-0.0963-0.006-0.1471-0.013-0.0101 0-0.0219-0.002-0.0321-0.004-0.0625-0.008-0.1251-0.019-0.1892-0.031-0.0541-0.009-0.1082-0.021-0.1641-0.034-0.289-0.068-0.5864-0.169-0.8872-0.305-0.2569-0.116-0.5172-0.256-0.7758-0.418-0.13-0.081-0.2602-0.167-0.3888-0.258-0.0642-0.047-0.1284-0.093-0.1926-0.142-0.2013-0.15-0.4007-0.313-0.5966-0.489-0.0541-0.05-0.1082-0.1-0.1623-0.152-0.0541-0.05-0.1082-0.102-0.1606-0.152-0.1318-0.129-0.2602-0.263-0.3853-0.403-0.049-0.054-0.098-0.109-0.1472-0.166-0.1351-0.155-0.2669-0.315-0.392-0.482-0.049-0.061-0.0947-0.123-0.1403-0.185-0.1708-0.231-0.3329-0.472-0.4851-0.722-0.0406-0.067-0.0812-0.136-0.12-0.204-0.0474-0.081-0.0929-0.164-0.1386-0.246-0.169-0.311-0.3245-0.633-0.4596-0.966-0.0204-0.048-0.0406-0.096-0.0576-0.145-0.0269-0.062-0.0506-0.125-0.0726-0.188-0.0339-0.091-0.066-0.182-0.0964-0.274-0.0304-0.091-0.0592-0.184-0.0879-0.277-0.027-0.09-0.0523-0.179-0.076-0.271-0.0271-0.096-0.0524-0.195-0.0744-0.295-0.0017-0.01-0.0051-0.02-0.0068-0.031-0.032-0.138-0.0608-0.277-0.0861-0.419-0.0339-0.186-0.0608-0.376-0.0811-0.567-0.0085-0.06-0.0136-0.121-0.0185-0.181-0.0068-0.064-0.0119-0.126-0.0153-0.19-0.0084-0.115-0.0135-0.233-0.017-0.35-0.0016-0.076-0.0034-0.151-0.0034-0.227v-5.2433c0-3.8742 3.0778-7.0153 6.8756-7.0187l0.0069-2.8422e-14c0.5239 0 1.0348 0.060201 1.5248 0.17239 0.448 0.10329 0.879 0.2517 1.287 0.43951 0.558 0.25506 1.077 0.5829 1.544 0.9743 0.392 0.3275 0.748 0.6964 1.059 1.1034 0.906 1.1775 1.452 2.6569 1.464 4.267 0.002 0.0206 0.002 0.0413 0.002 0.0621z"/>
        <path id="Path" fill="#fff" d="m17.932 31.83v0.002h-17.932l0.00049318-0.002c0-1.033 0.16736-2.028 0.47839-2.953 0.05573-0.168 0.11655-0.333 0.18264-0.497v-0.002c0.06428-0.164 0.13513-0.324 0.20944-0.482 0.29574-0.637 0.66434-1.232 1.0919-1.776 0.1081-0.137 0.2179-0.269 0.3312-0.397 0.0557-0.065 0.1149-0.129 0.1741-0.193 0.059-0.062 0.1184-0.124 0.179-0.186 0.3027-0.309 0.627-0.591 0.9686-0.852 0.1707-0.129 0.3431-0.25 0.5223-0.367 0.1792-0.115 0.3617-0.226 0.5476-0.329 0.0035-0.003 0.0068-0.003 0.0068-0.003 0.0726-0.04 0.1436-0.083 0.2147-0.128 0.2112-0.129 0.4141-0.273 0.6067-0.431 0.8164-0.662 1.4485-1.552 1.8085-2.572 0.2147-0.611 0.3313-1.268 0.3313-1.954l1.3064 0.007 1.3439 0.007c0 0.678 0.113 1.328 0.323 1.931 0.355 1.024 0.985 1.917 1.802 2.583 0.121 0.101 0.245 0.194 0.375 0.283 0.013 0.01 0.025 0.018 0.039 0.027 0.06 0.041 0.121 0.083 0.186 0.121 0.069 0.043 0.14 0.086 0.211 0.126 0.012 0.003 0.022 0.008 0.03 0.015 0.149 0.085 0.296 0.173 0.44 0.264 0.069 0.043 0.138 0.088 0.206 0.138 0.14 0.091 0.277 0.191 0.411 0.295 0 0.001 0.001 0.001 0.001 0.001h0.002c0.171 0.13 0.336 0.268 0.498 0.409 0.163 0.142 0.318 0.29 0.469 0.443 1.629 1.655 2.635 3.941 2.635 6.472z"/>
        <path id="Path" fill="#1D2C40" d="m17.931 31.829h-17.931c2.7001e-13 -1.033 0.16735-2.027 0.47839-2.953 0.05573-0.167 0.11672-0.333 0.18247-0.497v-0.001c0.06428-0.164 0.1353-0.325 0.20961-0.483 0.29573-0.636 0.66413-1.231 1.0919-1.776 0.1081-0.136 0.2181-0.269 0.3312-0.397 0.0558-0.065 0.1149-0.129 0.1741-0.193 0.0592-0.062 0.1184-0.124 0.1792-0.186 0.3025-0.308 0.627-0.591 0.9685-0.851 0.1708-0.13 0.343-0.25 0.5222-0.368 0.0929-0.06 0.186-0.118 0.2805-0.175 0.0879-0.054 0.1775-0.106 0.2671-0.156 0.0035-0.003 0.0068-0.001 0.0068-0.001v-0.002c0.0726-0.042 0.1436-0.083 0.2147-0.126 0.2112-0.131 0.4141-0.276 0.6033-0.435 0.0016 0.002 0.0016 0.002 0.0034 0.004 0.8756 0.914 2.0943 1.481 3.4464 1.485h0.0136c1.3526 0 2.5756-0.569 3.4546-1.483l0.002-0.002c0.12 0.102 0.245 0.197 0.373 0.285 0.014 0.01 0.026 0.018 0.039 0.027 0.061 0.041 0.124 0.081 0.186 0.121 0.069 0.043 0.14 0.084 0.211 0.124 0.012 0.003 0.021 0.01 0.031 0.015 0.079 0.045 0.16 0.092 0.238 0.14 0.068 0.041 0.135 0.083 0.201 0.126 0.07 0.043 0.139 0.088 0.206 0.138 0.141 0.091 0.278 0.191 0.411 0.295h0.004c0.17 0.131 0.338 0.267 0.498 0.41 0.162 0.141 0.318 0.29 0.468 0.443 1.63 1.655 2.635 3.941 2.635 6.472z"/>
        <path id="Path" fill="#1D2C40" d="m15.848 12.262c0 0.075-0.002 0.151-0.004 0.227-0.001 0.062-0.003 0.122-0.006 0.185-0.002 0.055-0.006 0.11-0.011 0.165-0.001 0.04-0.005 0.08-0.008 0.119-0.002 0.024-0.003 0.047-0.007 0.071-0.003 0.043-0.007 0.088-0.013 0.131-0.009 0.082-0.017 0.165-0.029 0.246-0.002 0.021-0.005 0.042-0.009 0.062-0.005 0.042-0.011 0.083-0.018 0.124-0.009 0.062-0.02 0.125-0.031 0.185-0.013 0.073-0.027 0.143-0.042 0.214-0.002 0.015-0.005 0.029-0.008 0.043-0.002 0.012-0.005 0.024-0.007 0.036-0.002 0.004-0.002 0.007-0.004 0.011 0 0.008-0.001 0.015-0.003 0.022-0.008 0.036-0.015 0.073-0.025 0.109-0.003 0.019-0.007 0.038-0.014 0.057-0.007 0.034-0.015 0.067-0.025 0.1-0.002 0.015-0.005 0.031-0.01 0.046-0.004 0.016-0.009 0.031-0.012 0.045-0.035 0.141-0.076 0.279-0.118 0.417-0.021 0.066-0.041 0.129-0.063 0.195-0.001 0.007-0.005 0.014-0.007 0.021-0.02 0.058-0.04 0.117-0.06 0.176-0.007 0.017-0.014 0.034-0.021 0.053-0.02 0.055-0.04 0.11-0.062 0.165-0.025 0.067-0.053 0.133-0.079 0.199-0.024 0.058-0.049 0.117-0.075 0.175-0.003 0.011-0.008 0.019-0.012 0.03-0.028 0.062-0.055 0.124-0.084 0.184-0.029 0.064-0.059 0.128-0.091 0.192-0.061 0.126-0.127 0.252-0.193 0.374l-0.091 0.165c-0.261 0.457-0.549 0.886-0.864 1.283-0.042 0.057-0.086 0.112-0.132 0.165-0.062 0.078-0.127 0.154-0.191 0.228-0.057 0.066-0.115 0.131-0.174 0.195-0.162 0.177-0.328 0.346-0.497 0.505-0.034 0.034-0.069 0.066-0.105 0.098-0.057 0.054-0.115 0.105-0.174 0.155-0.045 0.042-0.093 0.081-0.14 0.121-0.122 0.102-0.243 0.2-0.367 0.291-0.051 0.04-0.103 0.078-0.155 0.114-0.085 0.062-0.171 0.121-0.257 0.178-0.048 0.033-0.097 0.064-0.146 0.093-0.172 0.109-0.346 0.209-0.519 0.295-0.042 0.022-0.084 0.043-0.126 0.064-0.043 0.02-0.087 0.041-0.132 0.062-0.056 0.026-0.112 0.05-0.168 0.072-0.022 0.011-0.043 0.019-0.066 0.026-0.065 0.028-0.133 0.053-0.199 0.076-0.083 0.031-0.167 0.057-0.25 0.081-0.0575 0.017-0.1165 0.033-0.1741 0.046-0.0034 0.002-0.0067 0.004-0.0118 0.004-0.0575 0.014-0.1149 0.028-0.1725 0.038-0.0151 0.003-0.0304 0.007-0.0455 0.009-0.0473 0.008-0.0947 0.017-0.142 0.022-0.0676 0.011-0.1353 0.019-0.2029 0.022-0.0237 0.004-0.0455 0.006-0.0692 0.006-0.0541 0.003-0.1082 0.005-0.1606 0.005h-0.0051c-0.0523 0-0.1047-0.002-0.1572-0.005-0.0202 0-0.0406-0.002-0.0608-0.006-0.0473-0.001-0.0963-0.006-0.1471-0.013-0.0101 0-0.0219-0.002-0.0321-0.004-0.0625-0.008-0.1251-0.019-0.1892-0.031-0.0541-0.009-0.1082-0.021-0.1641-0.034-0.289-0.068-0.5864-0.169-0.8872-0.305-0.2569-0.116-0.5172-0.256-0.7758-0.418-0.13-0.079-0.2586-0.165-0.3888-0.258-0.0642-0.047-0.1284-0.093-0.1926-0.142-0.2013-0.15-0.4007-0.313-0.5966-0.489-0.0541-0.05-0.1082-0.1-0.1623-0.152-0.0541-0.05-0.1082-0.102-0.1606-0.152-0.1318-0.129-0.2602-0.263-0.3853-0.403-0.049-0.054-0.098-0.109-0.1472-0.166-0.1351-0.155-0.2669-0.315-0.392-0.482-0.049-0.061-0.0947-0.123-0.1403-0.185-0.1708-0.231-0.3329-0.472-0.4851-0.722-0.0406-0.067-0.0812-0.136-0.12-0.204-0.0474-0.081-0.0929-0.164-0.1386-0.246-0.169-0.311-0.3245-0.633-0.4596-0.966-0.0204-0.048-0.0406-0.096-0.0576-0.145-0.0269-0.062-0.0506-0.125-0.0726-0.188-0.0339-0.091-0.066-0.182-0.0964-0.274-0.0304-0.091-0.0592-0.184-0.0879-0.277-0.027-0.09-0.0523-0.179-0.076-0.271-0.0271-0.096-0.0524-0.195-0.0744-0.295-0.0017-0.01-0.0051-0.02-0.0068-0.031-0.032-0.138-0.0608-0.277-0.0861-0.419-0.0339-0.186-0.0608-0.376-0.0811-0.567-0.0085-0.06-0.0136-0.121-0.0185-0.181-0.0068-0.064-0.0119-0.126-0.0153-0.19-0.0084-0.115-0.0135-0.233-0.017-0.35-0.0016-0.076-0.0034-0.151-0.0034-0.227l1.0986 2.203 1.8879 0.84 2.2325 0.205h0.0016l1.6547 0.153h0.0102l1.5478 0.143s0-0.001 0.002 0l3.453 0.318 1.875-3.862z"/>
        <g id="Group" transform="translate(2.0431 10.073)" fill="#1D2C40">
         <path id="Path" d="m6.9307 3.2953l-0.0017 1.6982v0.0017l-0.0016 0.5949v0.4672l-0.0016 1.5516v0.0019l-0.0017-0.0019h-0.0016l-0.0051-0.0035-6.6478-3.4515c-0.00164-0.0104-0.00509-0.0208-0.00673-0.0312-0.03206-0.1379-0.06083-0.2776-0.08615-0.4189-0.03386-0.1862-0.06082-0.3758-0.081043-0.5673-0.008548-0.0602-0.013644-0.1208-0.018576-0.181-0.00674-0.0639-0.011837-0.1259-0.015289-0.1896-0.008384-0.1156-0.01348-0.2329-0.016932-0.3502-0.001644-0.0758-0.003453-0.1515-0.003453-0.2273v-2.0603c0 0.02936 0.001644 0.05871 0.001644 0.08788 0.013481 0.49821 0.091239 1.0464 0.24166 1.6068 0.11672 0.431 0.26188 0.8292 0.43104 1.1844v0.0017c0.44283 0.9397 1.0361 1.5774 1.5819 1.6809 0.0339 0.0052 0.0692 0.0087 0.1031 0.0121 0.2113 0.0241 0.4327 0.0379 0.6609 0.0379 0.8621 0 1.6276-0.7069 2.1093-0.9931 0.0035-0.0017 0.0068-0.0035 0.0102-0.005 0.0253-0.0156 0.0506-0.0312 0.0727-0.0466 0.0067-0.0051 0.0134-0.0086 0.0204-0.012 0.4055-0.2362 0.9904-0.3863 1.6427-0.3878h0.0137z"/>
         <path id="Path" d="m13.806 0.12728l-0.002 2.0602c0 0.5172-0.047 1.0241-0.135 1.5154-0.035 0.1966-0.076 0.3914-0.123 0.5844l-1.56 2.2982-5.0609 1.0224h-0.0016l-0.0017 0.0019v-0.0019l-0.0051-4.3143h0.0137c0.6523 0.0018 1.2388 0.1518 1.6444 0.3879 0.0069 0.0035 0.0118 0.0068 0.0186 0.012 0.0236 0.0155 0.049 0.0311 0.0744 0.0465 0.0017 0.0017 0.0051 0.0035 0.0084 0.0052 0.4833 0.2861 1.2473 0.9936 2.1098 0.9936 0.228 0 0.449-0.0138 0.66-0.0379 0.036-0.0036 0.07-0.0069 0.105-0.0121 0.544-0.1035 1.139-0.7414 1.58-1.6809v-0.0017c0.169-0.3552 0.315-0.7535 0.431-1.1844 0.153-0.5692 0.232-1.1242 0.242-1.6293 0.002-0.02213 0.002-0.04292 0.002-0.06522z"/>
        </g>
        <ellipse id="Oval" rx="1.6859" ry="1" cy="15.599" cx="8.9654" fill="#fff"/>
        <path id="Path" fill="#1D2C40" d="m8.9667 7.816e-14h-0.0066c-3.7978 0.0035215-6.8756 3.1447-6.8756 7.0187v3.0953s0.2856-1.847 1.0548-2.7435c0.8349-0.9741 0.6237-2.4552 2.4965-2.4552 1.2084 0 1.276 0.4551 3.3228 0.4551h0.0017 0.0066 0.0016c2.0465 0 2.1145-0.4551 3.3225-0.4551 1.873 0 1.662 1.4809 2.497 2.4552 0.769 0.8965 1.054 2.7435 1.054 2.7435v-3.0953c0-3.874-3.077-7.0153-6.8753-7.0187z"/>
       </g>
      </g>
     </g>
    </g>
   </g>
  </g>
 </g>
</svg>
