<?xml version="1.0" encoding="UTF-8" standalone="no"?>
<svg xmlns="http://www.w3.org/2000/svg" height="188px" width="258px" version="1.1" xmlns:xlink="http://www.w3.org/1999/xlink" viewBox="0 0 258 188"><!-- Generator: sketchtool 55.2 (78181) - https://sketchapp.com -->
 <title>78749322-0817-4E26-B5A1-B5F5537DAF5D</title>
 <desc>Created with sketchtool.</desc>
 <defs>
  <rect id="path-1" rx="4" height="137" width="129" y="0" x="0"/>
  <filter id="filter-2" height="167.2%" width="171.3%" y="-16.8%" x="-35.7%" filterUnits="objectBoundingBox">
   <feMorphology operator="erode" radius="4.5" result="shadowSpreadOuter1" in="SourceAlpha"/>
   <feOffset in="shadowSpreadOuter1" result="shadowOffsetOuter1" dx="0" dy="23"/>
   <feGaussianBlur stdDeviation="16" result="shadowBlurOuter1" in="shadowOffsetOuter1"/>
   <feColorMatrix type="matrix" values="0 0 0 0 0   0 0 0 0 0   0 0 0 0 0  0 0 0 0.125983392 0" in="shadowBlurOuter1"/>
  </filter>
  <circle id="path-3" cy="10.5" cx="10.5" r="10.5"/>
  <filter id="filter-5" height="414.3%" width="414.3%" y="-100%" x="-157.1%" filterUnits="objectBoundingBox">
   <feOffset in="SourceAlpha" result="shadowOffsetOuter1" dx="0" dy="12"/>
   <feGaussianBlur stdDeviation="9" result="shadowBlurOuter1" in="shadowOffsetOuter1"/>
   <feColorMatrix type="matrix" values="0 0 0 0 0.0500301033   0 0 0 0 0.284986413   0 0 0 0 0.269989202  0 0 0 0.150650131 0" in="shadowBlurOuter1"/>
  </filter>
  <circle id="path-6" cy="12" cx="12" r="12"/>
  <filter id="filter-8" height="375%" width="375%" y="-87.5%" x="-137.5%" filterUnits="objectBoundingBox">
   <feOffset in="SourceAlpha" result="shadowOffsetOuter1" dx="0" dy="12"/>
   <feGaussianBlur stdDeviation="9" result="shadowBlurOuter1" in="shadowOffsetOuter1"/>
   <feColorMatrix type="matrix" values="0 0 0 0 0.0500301033   0 0 0 0 0.284986413   0 0 0 0 0.269989202  0 0 0 0.150650131 0" in="shadowBlurOuter1"/>
  </filter>
 </defs>
 <g id="Desktop" fill-rule="evenodd" fill="none">
  <g id="1-1-Homepage" transform="translate(-1110 -1381)">
   <rect y="0" x="0" height="8667" width="1600" fill="#fff"/>
   <g id="Section-01" transform="translate(171 1098)">
    <g id="Rectangle-Copy-8" transform="translate(901 247.5)">
     <g id="Group-2" transform="translate(38 124)">
      <path id="Rectangle-Copy-2" fill="#E1E7EF" d="m2 0h66c5.523-1.0145e-15 10 4.4772 10 10v50c0 5.523-4.477 10-10 10h-58c-5.5228 0-10-4.477-10-10v-58c-1.3527e-16 -1.1046 0.89543-2 2-2z" transform="translate(39 35) scale(-1) translate(-39 -35)"/>
      <rect id="Rectangle" rx="2" height="4" width="12" y="13" x="14" fill="#fff"/>
      <rect id="Rectangle-Copy-3" rx="2" height="4" width="34" y="33" x="14" fill="#fff"/>
      <rect id="Rectangle-Copy-4" rx="2" height="4" width="53" y="43" x="14" fill="#fff"/>
      <rect id="Rectangle-Copy-5" rx="2" height="4" width="37" y="53" x="14" fill="#fff"/>
      <rect id="Rectangle-Copy" rx="2" height="4" width="53" y="23" x="14" fill="#fff"/>
     </g>
     <g id="Group-3" transform="translate(102 40)">
      <g id="Rectangle">
       <use filter="url(#filter-2)" xlink:href="#path-1" fill="black"/>
       <use xlink:href="#path-1" fill-rule="evenodd" fill="#FFFFFF"/>
      </g>
      <rect id="Rectangle" rx="3" height="59" width="108" y="11" x="11" fill="#E1E7EF"/>
      <path id="Shape-Copy-2" fill-rule="nonzero" fill="#fff" d="m62.4 34c0.994 0 1.8 0.806 1.8 1.8s-0.806 1.8-1.8 1.8-1.8-0.806-1.8-1.8 0.806-1.8 1.8-1.8zm-4.491 10.486l2.23-3.717c0.199-0.332 0.629-0.439 0.96-0.24 0.049 0.029 0.094 0.064 0.135 0.105l2.362 2.362c0.274 0.274 0.717 0.274 0.99 0 0.033-0.032 0.062-0.068 0.088-0.106l3.657-5.486c0.214-0.322 0.649-0.409 0.971-0.195 0.101 0.068 0.183 0.161 0.237 0.27l3.537 7.074c0.247 0.494 0.047 1.094-0.447 1.341-0.139 0.07-0.292 0.106-0.447 0.106h-13.416c-0.552 0-1-0.448-1-1 0-0.181 0.049-0.359 0.143-0.514z"/>
      <rect id="Rectangle-Copy-48" rx="2" height="4" width="84" y="97" x="18" fill="#E1E7EF"/>
      <rect id="Rectangle-Copy-51" rx="4" height="8" width="69" y="82" x="18" fill="#E1E7EF"/>
      <rect id="Rectangle-Copy-49" rx="2" height="4" width="52" y="115" x="18" fill="#E1E7EF"/>
      <rect id="Rectangle-Copy-50" rx="2" height="4" width="94" y="106" x="18" fill="#E1E7EF"/>
     </g>
     <g id="005-man-4-copy-2" transform="translate(258 64)">
      <mask id="mask-4" fill="white">
       <use xlink:href="#path-3"/>
      </mask>
      <g id="SVGID_1_" fill-rule="nonzero">
       <use filter="url(#filter-5)" xlink:href="#path-3" fill="black"/>
       <use xlink:href="#path-3" fill="#DDE3EB"/>
      </g>
      <g id="Group-16" mask="url(#mask-4)">
       <g transform="translate(6 5)" fill-rule="nonzero">
        <path id="Path" fill="#fff" d="m7.9239 3.6443v2.7223c0 0.0394-0.0009 0.0787-0.0018 0.1181-0.0008 0.0322-0.0016 0.0636-0.0033 0.0959-0.0008 0.0286-0.0026 0.0573-0.0051 0.0859-0.0008 0.0206-0.0026 0.0412-0.0042 0.0617-0.0009 0.0127-0.0017 0.0242-0.0035 0.0368-0.0016 0.0224-0.0033 0.0456-0.0067 0.068-0.0034 0.0429-0.0085 0.085-0.0144 0.128-0.0008 0.0108-0.0025 0.0215-0.0042 0.0322-0.0025 0.0215-0.0059 0.043-0.0093 0.0644v0.0027c-0.005 0.0313-0.0101 0.0618-0.0152 0.0931-0.0076 0.0429-0.0152 0.0859-0.0237 0.128-0.0008 0.0018-0.0008 0.0036-0.0016 0.0055-0.0008 0.0062-0.0017 0.0125-0.0034 0.0188-0.0008 0.0018-0.0008 0.0036-0.0017 0.0054-0.0042 0.0233-0.0093 0.0456-0.0144 0.068-0.0016 0.0098-0.0033 0.0197-0.0067 0.0296-0.0026 0.0161-0.0068 0.0321-0.0101 0.0483-0.0026 0.009-0.0042 0.0188-0.0077 0.0277-0.0017 0.0081-0.0042 0.0162-0.0059 0.0233-0.0177 0.0734-0.038 0.1451-0.0592 0.2167-0.0102 0.034-0.0203 0.0671-0.0312 0.1011-0.0008 0.0036-0.0026 0.0072-0.0034 0.0107-0.0101 0.0305-0.0203 0.0609-0.0304 0.0914-0.0034 0.009-0.0067 0.0178-0.0101 0.0277-0.0102 0.0286-0.0203 0.0573-0.0312 0.0859-0.0127 0.0348-0.0263 0.0689-0.0397 0.103-0.0119 0.0305-0.0245 0.0608-0.0372 0.0913-0.0016 0.0054-0.0042 0.0098-0.0059 0.0152-0.0144 0.0322-0.0279 0.0644-0.0423 0.0959-0.0143 0.033-0.0295 0.0662-0.0456 0.0994-0.0304 0.0653-0.0633 0.1307-0.0963 0.1942l-0.0456 0.0859c-0.1302 0.2373-0.2746 0.4601-0.4319 0.666-0.0211 0.0295-0.0431 0.0582-0.0659 0.0858-0.0312 0.0404-0.0634 0.0797-0.0955 0.1182-0.0288 0.034-0.0575 0.068-0.0871 0.1012-0.0811 0.0922-0.164 0.1799-0.2485 0.2623-0.0169 0.0179-0.0346 0.0341-0.0523 0.0511-0.0288 0.028-0.0575 0.055-0.0871 0.08-0.0227 0.022-0.0464 0.043-0.0702 0.063-0.0608 0.053-0.1216 0.104-0.1833 0.151-0.0254 0.021-0.0516 0.041-0.0778 0.06-0.0422 0.032-0.0854 0.062-0.1285 0.092-0.0236 0.017-0.0481 0.033-0.0726 0.048-0.0863 0.056-0.1733 0.108-0.2595 0.153-0.0212 0.012-0.0423 0.023-0.0634 0.033-0.0211 0.011-0.0431 0.022-0.0659 0.033-0.0279 0.013-0.0558 0.026-0.0837 0.037-0.011 0.006-0.0219 0.01-0.033 0.014-0.0329 0.014-0.0667 0.027-0.0997 0.039-0.0413 0.016-0.0836 0.03-0.125 0.042-0.0288 0.009-0.0583 0.017-0.087 0.024-0.0018 0.001-0.0034 0.002-0.006 0.002-0.0287 0.007-0.0574 0.014-0.0862 0.02-0.0075 0.002-0.0152 0.003-0.0227 0.004-0.0237 0.005-0.0474 0.009-0.0711 0.012-0.0337 0.005-0.0676 0.01-0.1014 0.012-0.0118 0.001-0.0228 0.002-0.0346 0.002-0.027 0.002-0.0541 0.003-0.0803 0.003h-0.0026c-0.0261 0-0.0523-0.001-0.0785-0.003-0.0101 0-0.0203-0.001-0.0304-0.002-0.0237-0.001-0.0482-0.004-0.0736-0.008-0.005 0-0.0109 0-0.016-0.001-0.0313-0.005-0.0626-0.01-0.0947-0.017-0.027-0.004-0.054-0.01-0.082-0.017-0.1445-0.035-0.2932-0.088-0.4436-0.159-0.1285-0.06-0.2586-0.132-0.3879-0.216-0.065-0.043-0.1301-0.087-0.1944-0.135-0.0321-0.024-0.0642-0.048-0.0963-0.073-0.1006-0.078-0.2003-0.163-0.2983-0.254-0.0271-0.026-0.0541-0.0524-0.0811-0.0792-0.0271-0.0259-0.0541-0.0528-0.0803-0.0788-0.066-0.0671-0.1302-0.1369-0.1927-0.2094-0.0245-0.0278-0.049-0.0563-0.0736-0.0859-0.0675-0.0806-0.1335-0.1638-0.196-0.2507-0.0245-0.0313-0.0474-0.0635-0.0701-0.0958-0.0854-0.12-0.1665-0.2453-0.2426-0.3752-0.0203-0.0348-0.0406-0.0706-0.06-0.1056-0.0237-0.042-0.0464-0.0851-0.0693-0.128-0.0845-0.1611-0.1623-0.3285-0.2298-0.5013-0.0102-0.0251-0.0203-0.0502-0.0288-0.0752-0.0135-0.0322-0.0253-0.0654-0.0363-0.0976-0.017-0.0474-0.033-0.0949-0.0482-0.1423-0.0152-0.0475-0.0296-0.0959-0.044-0.1441-0.0134-0.0466-0.0261-0.0931-0.0379-0.1406-0.0136-0.0501-0.0263-0.1011-0.0373-0.153-0.0008-0.0054-0.0025-0.0108-0.0033-0.0162-0.0161-0.0716-0.0305-0.1441-0.0431-0.2175-0.0169-0.0967-0.0304-0.1952-0.0405-0.2946-0.0043-0.0312-0.0069-0.0627-0.0093-0.0939-0.0034-0.0332-0.0059-0.0654-0.0077-0.0985-0.0042-0.06-0.0067-0.121-0.0084-0.1818-0.0009-0.0394-0.0018-0.0787-0.0018-0.1181v-2.7224c0-2.0116 1.5389-3.6426 3.4378-3.6443l0.0035-2.8422e-14c0.262 0 0.5172 0.031258 0.7622 0.089508 0.224 0.053632 0.4395 0.13069 0.6439 0.22821 0.2789 0.13243 0.5383 0.30265 0.7716 0.50587 0.1961 0.17005 0.3744 0.36161 0.5299 0.57291 0.453 0.6114 0.7259 1.3795 0.7318 2.2156 0.0009 0.0107 0.0009 0.0214 0.0009 0.0322z"/>
        <path id="Path" fill="#fff" d="m8.9659 16.527v0.001h-8.9657l0.00004659-0.001c0-0.536 0.083676-1.053 0.23919-1.533 0.02786-0.087 0.05828-0.173 0.09132-0.258v-0.001c0.03214-0.085 0.06757-0.168 0.10472-0.251 0.14787-0.33 0.33216-0.639 0.54595-0.922 0.05407-0.071 0.10897-0.14 0.16567-0.206 0.0278-0.034 0.0574-0.067 0.087-0.1 0.0295-0.032 0.0592-0.064 0.0895-0.097 0.1513-0.16 0.3135-0.307 0.4843-0.442 0.0853-0.067 0.1716-0.13 0.2612-0.19s0.1808-0.118 0.2738-0.171c0.0017-0.002 0.0033-0.002 0.0033-0.002 0.0364-0.021 0.0719-0.043 0.1074-0.066 0.1056-0.068 0.207-0.142 0.3034-0.224 0.4082-0.344 0.7242-0.806 0.9042-1.336 0.1074-0.317 0.1656-0.658 0.1656-1.0141l0.6533 0.0035 0.6718 0.0037c0 0.3519 0.0567 0.6889 0.1615 1.0029 0.1774 0.531 0.4927 0.995 0.9009 1.341 0.0608 0.053 0.1225 0.101 0.1875 0.147 0.0069 0.005 0.0127 0.009 0.0195 0.014 0.0304 0.021 0.0608 0.043 0.093 0.063 0.0346 0.022 0.0701 0.044 0.1056 0.065 0.0059 0.002 0.011 0.004 0.0152 0.008 0.0744 0.044 0.1479 0.089 0.2197 0.137 0.0347 0.022 0.0693 0.045 0.1031 0.071 0.0702 0.048 0.1386 0.1 0.2054 0.154h0.0008 0.0008c0.0854 0.068 0.1682 0.139 0.2493 0.213 0.0812 0.073 0.1589 0.15 0.2341 0.23 0.8147 0.859 1.3176 2.046 1.3176 3.36z"/>
        <path id="Path" fill="#1D2C40" d="m8.9656 16.527h-8.9656c2.7001e-13 -0.537 0.083677-1.053 0.23919-1.534 0.02787-0.087 0.05836-0.172 0.09124-0.258v-0.001c0.03214-0.085 0.06765-0.168 0.1048-0.25 0.14788-0.33 0.33208-0.639 0.54596-0.922 0.05411-0.071 0.10911-0.14 0.16561-0.206 0.0279-0.034 0.0575-0.067 0.0871-0.1 0.0295-0.033 0.0591-0.065 0.0896-0.097 0.1512-0.16 0.3135-0.307 0.4842-0.442 0.0854-0.067 0.1715-0.13 0.2611-0.191 0.0465-0.031 0.093-0.062 0.1402-0.091 0.044-0.028 0.0888-0.055 0.1336-0.081 0.0017-0.002 0.0034-0.001 0.0034-0.001v-0.001c0.0363-0.021 0.0718-0.043 0.1073-0.065 0.1057-0.068 0.2071-0.143 0.3017-0.226 0.0008 0.001 0.0008 0.001 0.0017 0.002 0.4378 0.475 1.0471 0.769 1.7232 0.771h0.0068c0.6761 0 1.2879-0.295 1.7274-0.77l0.0008-0.001c0.06 0.053 0.1226 0.102 0.1868 0.148 0.0067 0.005 0.0126 0.01 0.0194 0.014 0.0304 0.022 0.0617 0.042 0.0929 0.063 0.0346 0.022 0.0702 0.044 0.1057 0.064 0.0059 0.002 0.0101 0.006 0.0152 0.009 0.0397 0.023 0.0803 0.047 0.1191 0.072 0.0339 0.021 0.0677 0.043 0.1007 0.065 0.0346 0.023 0.0692 0.046 0.103 0.072 0.0702 0.047 0.1386 0.099 0.2054 0.153h0.0017c0.0853 0.068 0.169 0.139 0.2493 0.213 0.0811 0.074 0.1589 0.151 0.2341 0.23 0.8146 0.859 1.3174 2.046 1.3174 3.361z"/>
        <path id="Path" fill="#1D2C40" d="m7.9239 6.3666c0 0.0394-0.0009 0.0787-0.0018 0.1181-0.0008 0.0322-0.0016 0.0636-0.0033 0.0959-0.0008 0.0286-0.0026 0.0573-0.0051 0.0859-0.0008 0.0206-0.0026 0.0412-0.0042 0.0617-0.0009 0.0127-0.0017 0.0242-0.0035 0.0368-0.0016 0.0224-0.0033 0.0456-0.0067 0.068-0.0043 0.0429-0.0085 0.0858-0.0144 0.128-0.0008 0.0108-0.0025 0.0215-0.0042 0.0322-0.0025 0.0215-0.0059 0.043-0.0093 0.0644-0.0042 0.0322-0.0101 0.0645-0.0152 0.0959-0.0067 0.0376-0.0135 0.0743-0.0211 0.1109-0.0009 0.0081-0.0026 0.0152-0.0043 0.0225-0.0008 0.0062-0.0025 0.0125-0.0033 0.0188-0.0009 0.0018-0.0009 0.0036-0.0018 0.0054 0 0.0044-0.0008 0.0081-0.0016 0.0116-0.0042 0.0189-0.0077 0.0377-0.0127 0.0564-0.0016 0.0098-0.0033 0.0197-0.0067 0.0296-0.0035 0.0178-0.0077 0.0348-0.0127 0.0519-0.0008 0.0081-0.0025 0.0162-0.0051 0.0241-0.0017 0.0081-0.0042 0.0162-0.0059 0.0233-0.0177 0.0734-0.038 0.1451-0.0592 0.2167-0.0102 0.034-0.0203 0.0671-0.0312 0.1011-0.0008 0.0036-0.0026 0.0072-0.0034 0.0107-0.0101 0.0305-0.0203 0.0609-0.0304 0.0914-0.0034 0.009-0.0067 0.0178-0.0101 0.0277-0.0102 0.0286-0.0203 0.0573-0.0312 0.0859-0.0127 0.0348-0.0263 0.0689-0.0397 0.103-0.0119 0.0305-0.0245 0.0608-0.0372 0.0913-0.0016 0.0054-0.0042 0.0098-0.0059 0.0152-0.0144 0.0322-0.0279 0.0644-0.0423 0.0959-0.0143 0.033-0.0295 0.0662-0.0456 0.0994-0.0304 0.0653-0.0633 0.1307-0.0963 0.1942l-0.0456 0.0859c-0.1302 0.2373-0.2746 0.4601-0.4319 0.666-0.0211 0.0295-0.0431 0.0582-0.0659 0.0858-0.0312 0.0404-0.0634 0.0797-0.0955 0.1182-0.0288 0.034-0.0575 0.068-0.0871 0.1012-0.0811 0.0922-0.164 0.1799-0.2485 0.2623-0.0169 0.0179-0.0346 0.0341-0.0523 0.0511-0.0288 0.028-0.0575 0.055-0.0871 0.08-0.0227 0.022-0.0464 0.043-0.0702 0.063-0.0608 0.053-0.1216 0.104-0.1833 0.151-0.0254 0.021-0.0516 0.041-0.0778 0.06-0.0422 0.032-0.0854 0.062-0.1285 0.092-0.0236 0.017-0.0481 0.033-0.0726 0.048-0.0863 0.056-0.1733 0.108-0.2595 0.153-0.0212 0.012-0.0423 0.023-0.0634 0.033-0.0211 0.011-0.0431 0.022-0.0659 0.033-0.0279 0.013-0.0558 0.026-0.0837 0.037-0.011 0.006-0.0219 0.01-0.033 0.014-0.0329 0.014-0.0667 0.027-0.0997 0.039-0.0413 0.016-0.0836 0.03-0.125 0.042-0.0288 0.009-0.0583 0.017-0.087 0.024-0.0018 0.001-0.0034 0.002-0.006 0.002-0.0287 0.007-0.0574 0.014-0.0862 0.02-0.0075 0.002-0.0152 0.003-0.0227 0.004-0.0237 0.005-0.0474 0.009-0.0711 0.012-0.0337 0.005-0.0676 0.01-0.1014 0.012-0.0118 0.001-0.0228 0.002-0.0346 0.002-0.027 0.002-0.0541 0.003-0.0803 0.003h-0.0026c-0.0261 0-0.0523-0.001-0.0785-0.003-0.0101 0-0.0203-0.001-0.0304-0.002-0.0237-0.001-0.0482-0.004-0.0736-0.008-0.005 0-0.0109 0-0.016-0.001-0.0313-0.005-0.0626-0.01-0.0947-0.017-0.027-0.004-0.054-0.01-0.082-0.017-0.1445-0.035-0.2932-0.088-0.4436-0.159-0.1285-0.06-0.2586-0.132-0.3879-0.216-0.065-0.042-0.1293-0.086-0.1944-0.135-0.0321-0.024-0.0642-0.048-0.0963-0.073-0.1006-0.078-0.2003-0.163-0.2983-0.254-0.0271-0.026-0.0541-0.0524-0.0811-0.0792-0.0271-0.0259-0.0541-0.0528-0.0803-0.0788-0.066-0.0671-0.1302-0.1369-0.1927-0.2094-0.0245-0.0278-0.049-0.0563-0.0736-0.0859-0.0675-0.0806-0.1335-0.1638-0.196-0.2507-0.0245-0.0313-0.0474-0.0635-0.0701-0.0958-0.0854-0.12-0.1665-0.2453-0.2426-0.3752-0.0203-0.0348-0.0406-0.0706-0.06-0.1056-0.0237-0.042-0.0464-0.0851-0.0693-0.128-0.0845-0.1611-0.1623-0.3285-0.2298-0.5013-0.0102-0.0251-0.0203-0.0502-0.0288-0.0752-0.0135-0.0322-0.0253-0.0654-0.0363-0.0976-0.017-0.0474-0.033-0.0949-0.0482-0.1423-0.0152-0.0475-0.0296-0.0959-0.044-0.1441-0.0134-0.0466-0.0261-0.0931-0.0379-0.1406-0.0136-0.0501-0.0263-0.1011-0.0373-0.153-0.0008-0.0054-0.0025-0.0108-0.0033-0.0162-0.0161-0.0716-0.0305-0.1441-0.0431-0.2175-0.0169-0.0967-0.0304-0.1952-0.0405-0.2946-0.0043-0.0312-0.0069-0.0627-0.0093-0.0939-0.0034-0.0332-0.0059-0.0654-0.0077-0.0985-0.0042-0.06-0.0067-0.121-0.0084-0.1818-0.0009-0.0394-0.0018-0.0787-0.0018-0.1181l0.5494 1.1441 0.9439 0.436 1.1162 0.1064h0.0009l0.8273 0.0796h0.0051l0.774 0.0743s0-0.0009 0.0008 0l1.7266 0.1648 0.9374-2.0053z"/>
        <g id="Group" transform="translate(1.0215 5.2304)" fill="#1D2C40">
         <path id="Path" d="m3.4653 1.711l-0.0008 0.8818v0.0008l-0.0008 0.309v0.2425l-0.0008 0.8057v0.001l-0.0008-0.001h-0.0009l-0.0025-0.0018-3.3239-1.7922c-0.00082-0.0054-0.00255-0.0108-0.00337-0.0162-0.01603-0.0716-0.03041-0.1441-0.043068-0.2175-0.016933-0.0966-0.030413-0.1951-0.040523-0.2945-0.004275-0.0313-0.006823-0.0627-0.009289-0.094-0.00337-0.0332-0.005918-0.0654-0.007644-0.0985-0.004192-0.06-0.00674-0.1209-0.008466-0.1818-0.000822-0.0393-0.001726-0.0787-0.001726-0.118v-1.0698c0 0.015259 0.000822 0.030496 0.000822 0.04565 0.00674 0.25868 0.045619 0.54331 0.12083 0.8343 0.05835 0.22375 0.13093 0.43055 0.21552 0.61495v0.0009c0.22143 0.4879 0.51808 0.8191 0.79101 0.8728 0.0169 0.0027 0.0346 0.0045 0.0515 0.0063 0.1056 0.0125 0.2163 0.0196 0.3304 0.0196 0.4311 0 0.8139-0.367 1.0547-0.5156 0.0017-0.0009 0.0034-0.0018 0.0051-0.0026 0.0127-0.0081 0.0253-0.0162 0.0363-0.0242 0.0034-0.0026 0.0068-0.0045 0.0102-0.0062 0.2028-0.1227 0.4953-0.2006 0.8214-0.2014h0.0068z"/>
         <path id="Path" d="m6.903 0.066086l-0.0008 1.0697c0 0.2685-0.0237 0.5318-0.0676 0.7869-0.0178 0.102-0.0381 0.2032-0.0617 0.3034l-0.7801 1.1933-2.5303 0.5309h-0.0008l-0.0008 0.0009v-0.0009l-0.0025-2.2402h0.0068c0.3261 0.001 0.6194 0.0788 0.8222 0.2014 0.0034 0.0019 0.0059 0.0036 0.0093 0.0063 0.0118 0.008 0.0245 0.0161 0.0372 0.0241 0.0008 0.0009 0.0026 0.0018 0.0042 0.0027 0.2417 0.1486 0.6236 0.5159 1.0547 0.5159 0.1141 0 0.2248-0.0071 0.3304-0.0197 0.0178-0.0018 0.0346-0.0035 0.0524-0.0062 0.2721-0.0538 0.5696-0.385 0.7901-0.8728v-0.0009c0.0845-0.1844 0.1572-0.3912 0.2155-0.61497 0.0761-0.29552 0.1159-0.58372 0.1209-0.84597 0.0009-0.011497 0.0009-0.022294 0.0009-0.033874z"/>
        </g>
        <ellipse id="Oval" rx="1" ry="1" cy="8.0993" cx="4.4827" fill="#fff"/>
        <path id="Path" fill="#1D2C40" d="m4.4834 7.816e-14h-0.0033c-1.899 0.0018285-3.4378 1.6328-3.4378 3.6443v1.607s0.1427-0.9588 0.5273-1.4243c0.4175-0.5058 0.3119-1.2748 1.2483-1.2748 0.6042 0 0.638 0.2363 1.6614 0.2363h0.0008 0.0033 0.0009c1.0234 0 1.0572-0.2363 1.6614-0.2363 0.9364 0 0.8307 0.7689 1.2482 1.2748 0.3846 0.4655 0.5273 1.4243 0.5273 1.4243v-1.607c0-2.0115-1.5389-3.6426-3.4378-3.6443z"/>
       </g>
      </g>
     </g>
     <g id="Group-2-Copy" transform="translate(194 35)">
      <path id="Rectangle-Copy-2" fill="#5630FF" d="m2 0.59459h44c5.523 0 10 4.4771 10 10v30c0 5.522-4.477 10-10 10h-36c-5.5228 0-10-4.478-10-10v-38c-1.3527e-16 -1.105 0.89543-2.0004 2-2.0004z" transform="translate(28 25.595) scale(-1) translate(-28 -25.595)"/>
      <rect id="Rectangle" opacity=".54822" rx="1.4054" height="2.8108" width="8.4324" y="10.135" x="10.432" fill="#371FA6"/>
      <rect id="Rectangle-Copy-3" opacity=".54822" rx="1.4054" height="2.8108" width="23.892" y="24.189" x="10.432" fill="#371FA6"/>
      <rect id="Rectangle-Copy-4" opacity=".54822" rx="1.4054" height="2.8108" width="37.243" y="31.216" x="10.432" fill="#371FA6"/>
      <rect id="Rectangle-Copy-5" opacity=".54822" rx="1.4054" height="2.8108" width="26" y="38.243" x="10.432" fill="#371FA6"/>
      <rect id="Rectangle-Copy" opacity=".54822" rx="1.4054" height="2.8108" width="37.243" y="17.162" x="10.432" fill="#371FA6"/>
     </g>
     <g id="005-man-4-copy" transform="translate(125 170)">
      <mask id="mask-7" fill="white">
       <use xlink:href="#path-6"/>
      </mask>
      <g id="SVGID_1_" fill-rule="nonzero">
       <use filter="url(#filter-8)" xlink:href="#path-6" fill="black"/>
       <use xlink:href="#path-6" fill="#00BCB0"/>
      </g>
      <g id="Group-16" mask="url(#mask-7)">
       <g transform="translate(5.3333 1.3333)" fill-rule="nonzero">
        <path id="Path" fill="#fff" d="m12.269 5.4338v4.0591c0 0.0587-0.001 0.1174-0.002 0.176-0.002 0.0481-0.003 0.0948-0.006 0.143-0.001 0.0427-0.004 0.0854-0.008 0.1281-0.001 0.0307-0.004 0.061-0.006 0.092-0.001 0.019-0.003 0.036-0.005 0.055-0.003 0.033-0.006 0.068-0.011 0.101-0.005 0.064-0.013 0.127-0.022 0.191-0.001 0.016-0.004 0.032-0.007 0.048-0.004 0.032-0.009 0.064-0.014 0.096v0.004c-0.008 0.047-0.016 0.092-0.024 0.139-0.011 0.064-0.023 0.128-0.036 0.191-0.001 0.003-0.001 0.005-0.003 0.008-0.001 0.009-0.002 0.019-0.005 0.028-0.001 0.003-0.001 0.005-0.003 0.008-0.006 0.035-0.014 0.068-0.022 0.102-0.002 0.014-0.005 0.029-0.01 0.044-0.004 0.024-0.011 0.048-0.016 0.072-0.004 0.013-0.006 0.028-0.012 0.041-0.002 0.012-0.006 0.024-0.009 0.035-0.027 0.109-0.059 0.216-0.092 0.323-0.015 0.051-0.031 0.1-0.048 0.151-0.001 0.005-0.004 0.01-0.005 0.016-0.016 0.045-0.032 0.09-0.047 0.136-0.006 0.013-0.011 0.026-0.016 0.041-0.016 0.043-0.031 0.085-0.048 0.128-0.02 0.052-0.041 0.103-0.062 0.154-0.018 0.045-0.038 0.09-0.057 0.136-0.003 0.008-0.007 0.015-0.009 0.023-0.023 0.048-0.044 0.096-0.066 0.143-0.022 0.049-0.046 0.098-0.071 0.148-0.047 0.097-0.098 0.195-0.149 0.289l-0.07 0.128c-0.202 0.354-0.426 0.686-0.669 0.993-0.033 0.044-0.067 0.087-0.102 0.128-0.048 0.061-0.098 0.119-0.148 0.177-0.045 0.05-0.089 0.101-0.135 0.15-0.125 0.138-0.254 0.269-0.3845 0.392-0.0262 0.026-0.0536 0.05-0.0811 0.076-0.0445 0.041-0.0889 0.081-0.1348 0.12-0.0352 0.032-0.0719 0.063-0.1087 0.093-0.0941 0.079-0.1883 0.155-0.2839 0.226-0.0392 0.031-0.0798 0.06-0.1204 0.088-0.0654 0.048-0.1322 0.093-0.1989 0.138-0.0367 0.025-0.0746 0.049-0.1125 0.072-0.1335 0.084-0.2683 0.161-0.4018 0.228-0.0327 0.017-0.0655 0.033-0.0982 0.049s-0.0667 0.032-0.102 0.048c-0.0432 0.02-0.0865 0.039-0.1296 0.056-0.0171 0.008-0.034 0.015-0.051 0.02-0.0511 0.022-0.1034 0.042-0.1544 0.059-0.064 0.024-0.1296 0.044-0.1936 0.063-0.0445 0.013-0.0902 0.025-0.1348 0.036-0.0027 0.001-0.0052 0.002-0.0091 0.002-0.0446 0.011-0.089 0.022-0.1336 0.03-0.0117 0.003-0.0235 0.005-0.0352 0.007-0.0367 0.006-0.0733 0.013-0.11 0.017-0.0523 0.008-0.1047 0.015-0.157 0.017-0.0184 0.003-0.0353 0.004-0.0536 0.004-0.0419 0.003-0.0838 0.004-0.1244 0.004h-0.0039c-0.0405 0-0.0811-0.001-0.1217-0.004-0.0156 0-0.0314-0.001-0.0471-0.004-0.0366-0.001-0.0745-0.005-0.1139-0.01-0.0077 0-0.0169-0.002-0.0248-0.003-0.0484-0.007-0.0968-0.015-0.1465-0.024-0.0419-0.007-0.0837-0.016-0.127-0.027-0.2237-0.052-0.454-0.131-0.6869-0.236-0.1989-0.089-0.4004-0.198-0.6006-0.323-0.1007-0.063-0.2015-0.129-0.301-0.2-0.0498-0.036-0.0994-0.072-0.1492-0.11-0.1557-0.116-0.3101-0.243-0.4618-0.379-0.0419-0.038-0.0838-0.077-0.1256-0.117-0.0419-0.039-0.0838-0.079-0.1244-0.118-0.1021-0.1-0.2015-0.204-0.2983-0.312-0.0379-0.041-0.0759-0.084-0.1139-0.128-0.1046-0.12-0.2067-0.244-0.3036-0.374-0.0379-0.046-0.0733-0.094-0.1085-0.143-0.1323-0.178-0.2578-0.365-0.3756-0.559-0.0315-0.052-0.0629-0.105-0.0929-0.157-0.0367-0.063-0.0719-0.127-0.1073-0.191-0.1309-0.241-0.2513-0.49-0.3559-0.748-0.0158-0.037-0.0314-0.075-0.0445-0.112-0.0209-0.048-0.0392-0.097-0.0563-0.145-0.0262-0.071-0.051-0.142-0.0746-0.213-0.0235-0.07-0.0458-0.143-0.068-0.215-0.0209-0.069-0.0405-0.138-0.0588-0.209-0.021-0.075-0.0406-0.151-0.0577-0.228-0.0013-0.008-0.0039-0.016-0.0052-0.024-0.0248-0.107-0.0471-0.215-0.0667-0.325-0.0262-0.144-0.0471-0.291-0.0628-0.439-0.0066-0.047-0.0105-0.093-0.0143-0.14-0.0053-0.049-0.0092-0.0975-0.0119-0.1469-0.0065-0.0894-0.0104-0.1803-0.0131-0.271-0.0013-0.0587-0.0027-0.1174-0.0027-0.1761v-4.0592c0-2.9993 2.3828-5.4312 5.3231-5.4338l0.0053-2.8422e-14c0.4057 0 0.8008 0.046607 1.1802 0.13346 0.3469 0.07997 0.6806 0.19487 0.9971 0.34027 0.4318 0.19746 0.8335 0.45127 1.1944 0.75427 0.304 0.2536 0.58 0.5392 0.821 0.8543 0.701 0.9116 1.124 2.0569 1.133 3.3035 0.001 0.0159 0.001 0.0319 0.001 0.048z"/>
        <path id="Path" fill="#fff" d="m13.883 24.643v0.001h-13.883l0.00038182-0.001c0-0.8 0.12957-1.57 0.37037-2.287 0.04314-0.129 0.09023-0.258 0.1414-0.384v-0.002c0.04976-0.127 0.10461-0.251 0.16214-0.373 0.22896-0.493 0.51431-0.954 0.84531-1.375 0.0838-0.106 0.1688-0.209 0.2565-0.307 0.0431-0.051 0.089-0.1 0.1348-0.15 0.0457-0.048 0.0916-0.096 0.1386-0.144 0.2343-0.239 0.4854-0.458 0.7499-0.659 0.1321-0.1 0.2656-0.194 0.4043-0.284s0.28-0.175 0.424-0.255c0.0026-0.003 0.0052-0.003 0.0052-0.003 0.0562-0.031 0.1112-0.064 0.1662-0.099 0.1635-0.1 0.3206-0.211 0.4698-0.333 0.632-0.513 1.1214-1.202 1.4001-1.992 0.1662-0.472 0.2564-0.981 0.2564-1.512l1.0115 0.005 1.0403 0.006c0 0.524 0.0877 1.027 0.25 1.494 0.2747 0.793 0.7628 1.485 1.3949 2 0.0942 0.079 0.1897 0.151 0.2904 0.219 0.0106 0.008 0.0196 0.014 0.0302 0.021 0.0471 0.032 0.0943 0.064 0.1443 0.094 0.053 0.033 0.108 0.066 0.163 0.097 0.009 0.003 0.017 0.007 0.024 0.012 0.115 0.066 0.229 0.134 0.34 0.204 0.054 0.034 0.107 0.068 0.16 0.107 0.108 0.071 0.214 0.148 0.318 0.228 0 0.002 0.001 0.002 0.001 0.002h0.001c0.132 0.1 0.261 0.207 0.386 0.316 0.126 0.11 0.246 0.224 0.363 0.343 1.261 1.281 2.04 3.051 2.04 5.011z"/>
        <path id="Path" fill="#1D2C40" d="m13.882 24.642h-13.882c2.7001e-13 -0.8 0.12956-1.57 0.37036-2.286 0.04315-0.13 0.09037-0.258 0.14128-0.385v-0.001c0.04976-0.127 0.10474-0.251 0.16227-0.374 0.22896-0.492 0.51419-0.953 0.84539-1.375 0.0837-0.105 0.1688-0.208 0.2564-0.307 0.0432-0.051 0.089-0.1 0.1348-0.149 0.0458-0.048 0.0916-0.096 0.1387-0.144 0.2342-0.239 0.4854-0.458 0.7498-0.66 0.1322-0.1 0.2656-0.193 0.4043-0.284 0.0719-0.047 0.144-0.092 0.2172-0.136 0.068-0.042 0.1374-0.082 0.2068-0.12 0.0026-0.003 0.0052-0.002 0.0052-0.002v-0.001c0.0562-0.032 0.1112-0.064 0.1662-0.098 0.1636-0.101 0.3206-0.213 0.4671-0.336 0.0013 0.002 0.0013 0.002 0.0027 0.003 0.6778 0.707 1.6213 1.146 2.6681 1.149h0.0106c1.0468 0 1.9941-0.44 2.6746-1.148l0.0013-0.001c0.0929 0.079 0.1898 0.152 0.2892 0.22 0.0104 0.008 0.0196 0.015 0.03 0.021 0.0471 0.032 0.0957 0.063 0.1437 0.094 0.054 0.033 0.109 0.065 0.164 0.096 0.009 0.003 0.016 0.008 0.023 0.012 0.062 0.035 0.125 0.071 0.185 0.108 0.052 0.032 0.105 0.064 0.156 0.098 0.053 0.033 0.107 0.068 0.159 0.106 0.109 0.071 0.215 0.149 0.318 0.229h0.003c0.132 0.101 0.262 0.207 0.386 0.317 0.125 0.11 0.246 0.225 0.362 0.343 1.262 1.282 2.04 3.051 2.04 5.011z"/>
        <path id="Path" fill="#1D2C40" d="m12.269 9.4929c0 0.0587-0.001 0.1174-0.002 0.176-0.002 0.0481-0.003 0.0948-0.006 0.143-0.001 0.0427-0.004 0.0854-0.008 0.1281-0.001 0.0307-0.004 0.061-0.006 0.092-0.001 0.019-0.003 0.036-0.005 0.055-0.003 0.033-0.006 0.068-0.011 0.101-0.006 0.064-0.013 0.128-0.022 0.191-0.001 0.016-0.004 0.032-0.007 0.048-0.004 0.032-0.009 0.064-0.014 0.096-0.006 0.048-0.016 0.096-0.024 0.143-0.01 0.056-0.021 0.111-0.032 0.166-0.002 0.012-0.004 0.022-0.007 0.033-0.001 0.009-0.004 0.019-0.005 0.028-0.001 0.003-0.001 0.005-0.003 0.008 0 0.007-0.001 0.012-0.002 0.018-0.007 0.028-0.012 0.056-0.02 0.084-0.002 0.014-0.005 0.029-0.01 0.044-0.006 0.026-0.012 0.052-0.02 0.077-0.001 0.012-0.004 0.024-0.008 0.036-0.002 0.012-0.006 0.024-0.009 0.035-0.027 0.109-0.059 0.216-0.092 0.323-0.015 0.051-0.031 0.1-0.048 0.151-0.001 0.005-0.004 0.01-0.005 0.016-0.016 0.045-0.032 0.09-0.047 0.136-0.006 0.013-0.011 0.026-0.016 0.041-0.016 0.043-0.031 0.085-0.048 0.128-0.02 0.052-0.041 0.103-0.062 0.154-0.018 0.045-0.038 0.09-0.057 0.136-0.003 0.008-0.007 0.015-0.009 0.023-0.023 0.048-0.044 0.096-0.066 0.143-0.022 0.049-0.046 0.098-0.071 0.148-0.047 0.097-0.098 0.195-0.149 0.289l-0.07 0.128c-0.202 0.354-0.426 0.686-0.669 0.993-0.033 0.044-0.067 0.087-0.102 0.128-0.048 0.061-0.098 0.119-0.148 0.177-0.045 0.05-0.089 0.101-0.135 0.15-0.125 0.138-0.254 0.269-0.3845 0.392-0.0262 0.026-0.0536 0.05-0.0811 0.076-0.0445 0.041-0.0889 0.081-0.1348 0.12-0.0352 0.032-0.0719 0.063-0.1087 0.093-0.0941 0.079-0.1883 0.155-0.2839 0.226-0.0392 0.031-0.0798 0.06-0.1204 0.088-0.0654 0.048-0.1322 0.093-0.1989 0.138-0.0367 0.025-0.0746 0.049-0.1125 0.072-0.1335 0.084-0.2683 0.161-0.4018 0.228-0.0327 0.017-0.0655 0.033-0.0982 0.049s-0.0667 0.032-0.102 0.048c-0.0432 0.02-0.0865 0.039-0.1296 0.056-0.0171 0.008-0.034 0.015-0.051 0.02-0.0511 0.022-0.1034 0.042-0.1544 0.059-0.064 0.024-0.1296 0.044-0.1936 0.063-0.0445 0.013-0.0902 0.025-0.1348 0.036-0.0027 0.001-0.0052 0.002-0.0091 0.002-0.0446 0.011-0.089 0.022-0.1336 0.03-0.0117 0.003-0.0235 0.005-0.0352 0.007-0.0367 0.006-0.0733 0.013-0.11 0.017-0.0523 0.008-0.1047 0.015-0.157 0.017-0.0184 0.003-0.0353 0.004-0.0536 0.004-0.0419 0.003-0.0838 0.004-0.1244 0.004h-0.0039c-0.0405 0-0.0811-0.001-0.1217-0.004-0.0156 0-0.0314-0.001-0.0471-0.004-0.0366-0.001-0.0745-0.005-0.1139-0.01-0.0077 0-0.0169-0.002-0.0248-0.003-0.0484-0.007-0.0968-0.015-0.1465-0.024-0.0419-0.007-0.0837-0.016-0.127-0.027-0.2237-0.052-0.454-0.131-0.6869-0.236-0.1989-0.089-0.4004-0.198-0.6006-0.323-0.1007-0.061-0.2002-0.128-0.301-0.2-0.0498-0.036-0.0994-0.072-0.1492-0.11-0.1557-0.116-0.3101-0.243-0.4618-0.379-0.0419-0.038-0.0838-0.077-0.1256-0.117-0.0419-0.039-0.0838-0.079-0.1244-0.118-0.1021-0.1-0.2015-0.204-0.2983-0.312-0.0379-0.041-0.0759-0.084-0.1139-0.128-0.1046-0.12-0.2067-0.244-0.3036-0.374-0.0379-0.046-0.0733-0.094-0.1085-0.143-0.1323-0.178-0.2578-0.365-0.3756-0.559-0.0315-0.052-0.0629-0.105-0.0929-0.157-0.0367-0.063-0.0719-0.127-0.1073-0.191-0.1309-0.241-0.2513-0.49-0.3559-0.748-0.0158-0.037-0.0314-0.075-0.0445-0.112-0.0209-0.048-0.0392-0.097-0.0563-0.145-0.0262-0.071-0.051-0.142-0.0746-0.213-0.0235-0.07-0.0458-0.143-0.068-0.215-0.0209-0.069-0.0405-0.138-0.0588-0.209-0.021-0.075-0.0406-0.151-0.0577-0.228-0.0013-0.008-0.0039-0.016-0.0052-0.024-0.0248-0.107-0.0471-0.215-0.0667-0.325-0.0262-0.144-0.0471-0.291-0.0628-0.439-0.0066-0.047-0.0105-0.093-0.0143-0.14-0.0053-0.049-0.0092-0.0975-0.0119-0.1469-0.0065-0.0894-0.0104-0.1803-0.0131-0.271-0.0013-0.0587-0.0027-0.1174-0.0027-0.1761l0.8506 1.706 1.4616 0.65 1.7284 0.159h0.0012l1.281 0.118h0.0079l1.1986 0.111s0-0.001 0.0012 0l2.6736 0.246 1.451-2.9901z"/>
        <g id="Group" transform="translate(1.5817 7.7987)" fill="#1D2C40">
         <path id="Path" d="m5.3657 2.5512l-0.0013 1.3147v0.0013l-0.0013 0.4606v0.3617l-0.0012 1.2013v0.0014l-0.0013-0.0014h-0.0013l-0.0039-0.0027-5.1467-2.6722c-0.00125-0.0081-0.00392-0.0161-0.00519-0.0242-0.02482-0.1067-0.04709-0.2148-0.06669-0.3243-0.02622-0.1441-0.047093-0.2909-0.062747-0.4392-0.006618-0.0466-0.010564-0.0934-0.014382-0.14-0.005218-0.0495-0.009164-0.0975-0.011836-0.1469-0.006491-0.0894-0.010437-0.1803-0.01311-0.271-0.001272-0.0587-0.002672-0.1174-0.002672-0.1761v-1.595c0 0.02271 0.001272 0.04542 0.001272 0.06801 0.010437 0.38571 0.070635 0.81011 0.1871 1.244 0.09036 0.3336 0.20274 0.642 0.33371 0.9169v0.0013c0.34287 0.7276 0.80215 1.2213 1.2248 1.3014 0.0261 0.004 0.0535 0.0068 0.0797 0.0094 0.1635 0.0186 0.335 0.0293 0.5116 0.0293 0.6674 0 1.2602-0.5472 1.6331-0.7688 0.0026-0.0013 0.0052-0.0028 0.0079-0.0039 0.0196-0.0121 0.0392-0.0242 0.0562-0.0361 0.0052-0.0039 0.0104-0.0066 0.0158-0.0092 0.314-0.183 0.7668-0.2991 1.2718-0.3003h0.0106z"/>
         <path id="Path" d="m10.688 0.098537l-0.001 1.5951c0 0.4003-0.036 0.7928-0.104 1.1732-0.028 0.1521-0.059 0.303-0.096 0.4524l-1.2078 1.7793-3.9178 0.7915h-0.0013l-0.0013 0.0014v-0.0014l-0.0039-3.3401h0.0105c0.5051 0.0014 0.9592 0.1175 1.2731 0.3003 0.0054 0.0027 0.0092 0.0053 0.0144 0.0093 0.0184 0.012 0.038 0.024 0.0577 0.036 0.0013 0.0013 0.0039 0.0027 0.0065 0.004 0.3742 0.2215 0.9656 0.7692 1.633 0.7692 0.1767 0 0.3481-0.0106 0.5116-0.0293 0.0275-0.0028 0.0536-0.0054 0.0811-0.0094 0.4214-0.0801 0.882-0.5739 1.2232-1.3013v-0.0013c0.131-0.275 0.244-0.5833 0.334-0.917 0.118-0.44061 0.179-0.87033 0.187-1.2614 0.001-0.0171 0.001-0.0332 0.001-0.050463z"/>
        </g>
        <ellipse id="Oval" rx="1.3052" ry="1" cy="12.076" cx="6.9409" fill="#fff"/>
        <path id="Path" fill="#1D2C40" d="m6.942 7.816e-14h-0.0051c-2.9403 0.0027263-5.3231 2.4346-5.3231 5.4338v2.396s0.2211-1.4296 0.8166-2.1236c0.6464-0.7542 0.4829-1.9008 1.9328-1.9008 0.9355 0 0.9879 0.3524 2.5725 0.3524h0.0013 0.0051 0.0013c1.5846 0 1.6369-0.3524 2.5725-0.3524 1.4501 0 1.2861 1.1465 1.9331 1.9008 0.595 0.694 0.816 2.1236 0.816 2.1236v-2.396c0-2.9992-2.3828-5.4312-5.323-5.4338z"/>
       </g>
      </g>
     </g>
    </g>
   </g>
  </g>
 </g>
</svg>
