<?xml version="1.0" encoding="UTF-8" standalone="no"?>
<svg xmlns="http://www.w3.org/2000/svg" height="20px" width="21px" version="1.1" xmlns:xlink="http://www.w3.org/1999/xlink" viewBox="0 0 21 20"><!-- Generator: sketchtool 55.2 (78181) - https://sketchapp.com -->
 <title>1DF2E14F-F259-481F-BF99-6C16A3C27FF8</title>
 <desc>Created with sketchtool.</desc>
 <defs>
  <linearGradient id="linearGradient-1" y1="15.136%" x2="58.204%" x1="57.282%" y2="109.52%">
   <stop stop-color="#F3F5F7" offset="0"/>
   <stop stop-color="#fff" stop-opacity="0" offset="1"/>
  </linearGradient>
  <path id="path-2" d="m1041 191h26c9.9 0 18 8.06 18 18v26c0 9.94-8.1 18-18 18h-42c-1.1 0-2-0.9-2-2v-42c0-9.94 8.1-18 18-18z"/>
  <filter id="filter-3" height="225.8%" width="217.7%" y="-31.5%" x="-58.9%" filterUnits="objectBoundingBox">
   <feMorphology operator="erode" radius="8" result="shadowSpreadOuter1" in="SourceAlpha"/>
   <feOffset in="shadowSpreadOuter1" result="shadowOffsetOuter1" dx="0" dy="22"/>
   <feGaussianBlur stdDeviation="16.5" result="shadowBlurOuter1" in="shadowOffsetOuter1"/>
   <feColorMatrix type="matrix" values="0 0 0 0 0   0 0 0 0 0   0 0 0 0 0  0 0 0 0.163133741 0" in="shadowBlurOuter1"/>
  </filter>
 </defs>
 <g id="Desktop" fill-rule="evenodd" fill="none">
  <g id="1-1-Homepage" transform="translate(-1005 -6707)">
   <rect y="0" x="0" height="8667" width="1600" fill="#fff"/>
   <path id="shape" fill="url(#linearGradient-1)" d="m-39 4441h1294c220.9 0 400 179.1 400 400v2912h-1294c-220.91 0-400-179.1-400-400v-2912z" transform="translate(808 6097) scale(-1 1) rotate(180) translate(-808 -6097)"/>
   <g id="Section-07" transform="translate(-39 6495)">
    <g id="Rectangle-Copy-5">
     <use filter="url(#filter-3)" xlink:href="#path-2" fill="black"/>
     <use xlink:href="#path-2" fill-rule="evenodd" fill="#FFFFFF"/>
    </g>
    <g id="pie-chart" fill-rule="nonzero" transform="translate(1044.5 213)">
     <g id="Path">
      <path d="m17.268 12.112c-1.4 3.311-4.837 5.281-8.4018 4.817-3.5649-0.465-6.3821-3.25-6.8872-6.809-0.5051-3.5595 1.4261-7.0186 4.721-8.4565 0.5061-0.2209 0.7374-0.81027 0.5165-1.3165-0.2209-0.50615-0.8103-0.73742-1.3165-0.51653-4.1186 1.7973-6.5325 6.1211-5.9012 10.571 0.63138 4.449 4.153 7.93 8.609 8.511 4.4562 0.581 8.7522-1.883 10.502-6.022 0.215-0.508-0.023-1.095-0.532-1.31-0.508-0.215-1.095 0.023-1.31 0.532z" fill="#5630FF"/>
      <path d="m19.9 9c0-2.6522-1.054-5.1957-2.929-7.0711-1.875-1.8753-4.419-2.9289-7.071-2.9289-0.5523 0-1 0.44772-1 1v9c0 0.5523 0.4477 1 1 1h9c0.552 0 1-0.4477 1-1zm-9-1v-6.9373c1.753 0.2208 3.394 1.0178 4.657 2.2804 1.262 1.2627 2.059 2.9039 2.28 4.6569h-6.937z" fill="#9D86FF"/>
     </g>
    </g>
   </g>
  </g>
 </g>
</svg>
