<?xml version="1.0" encoding="UTF-8"?>
<svg width="22px" height="20px" viewBox="0 0 22 20" version="1.1" xmlns="http://www.w3.org/2000/svg" xmlns:xlink="http://www.w3.org/1999/xlink">
    <!-- Generator: Sketch 55.2 (78181) - https://sketchapp.com -->
    <title>search-2</title>
    <desc>Created with Sketch.</desc>
    <g id="Desktop" stroke="none" stroke-width="1" fill="none" fill-rule="evenodd">
        <g id="1-1-Homepage" transform="translate(-1004.000000, -4982.000000)">
            <g id="Section-05" transform="translate(112.000000, 4891.500000)">
                <g id="search-2" transform="translate(893.100000, 91.500000)">
                    <g>
                        <path d="M20.5071068,14.5928932 L16.7523068,10.8380932 C16.3617825,10.4475689 15.7286175,10.4475689 15.3380932,10.8380932 C14.9475689,11.2286175 14.9475689,11.8617825 15.3380932,12.2523068 L19.0928932,16.0071068 C19.4834175,16.3976311 20.1165825,16.3976311 20.5071068,16.0071068 C20.8976311,15.6165825 20.8976311,14.9834175 20.5071068,14.5928932 Z" id="Path" fill="#5630FF" fill-rule="nonzero"></path>
                        <path d="M6.3,5.3 L0,5.3 C-0.55228475,5.3 -1,5.74771525 -1,6.3 C-1,6.85228475 -0.55228475,7.3 0,7.3 L6.3,7.3 C6.85228475,7.3 7.3,6.85228475 7.3,6.3 C7.3,5.74771525 6.85228475,5.3 6.3,5.3 Z" id="Path" fill="#9D86FF" fill-rule="nonzero"></path>
                        <path d="M6.3,10.7 L0,10.7 C-0.55228475,10.7 -1,11.1477153 -1,11.7 C-1,12.2522847 -0.55228475,12.7 0,12.7 L6.3,12.7 C6.85228475,12.7 7.3,12.2522847 7.3,11.7 C7.3,11.1477153 6.85228475,10.7 6.3,10.7 Z" id="Path" fill="#9D86FF" fill-rule="nonzero"></path>
                        <path d="M13.5,16.1 L0,16.1 C-0.55228475,16.1 -1,16.5477153 -1,17.1 C-1,17.6522847 -0.55228475,18.1 0,18.1 L13.5,18.1 C14.0522847,18.1 14.5,17.6522847 14.5,17.1 C14.5,16.5477153 14.0522847,16.1 13.5,16.1 Z" id="Path" fill="#9D86FF" fill-rule="nonzero"></path>
                        <path d="M13.5,-0.1 L0,-0.1 C-0.55228475,-0.1 -1,0.34771525 -1,0.9 C-1,1.45228475 -0.55228475,1.9 0,1.9 L13.5,1.9 C14.0522847,1.9 14.5,1.45228475 14.5,0.9 C14.5,0.34771525 14.0522847,-0.1 13.5,-0.1 Z" id="Path" fill="#9D86FF" fill-rule="nonzero"></path>
                        <path d="M13.5,13.6 C16.0405098,13.6 18.1,11.5405098 18.1,9 C18.1,6.45949015 16.0405098,4.4 13.5,4.4 C10.9594902,4.4 8.9,6.45949015 8.9,9 C8.9,11.5405098 10.9594902,13.6 13.5,13.6 Z M13.5,11.6 C12.0640597,11.6 10.9,10.4359403 10.9,9 C10.9,7.56405965 12.0640597,6.4 13.5,6.4 C14.9359403,6.4 16.1,7.56405965 16.1,9 C16.1,10.4359403 14.9359403,11.6 13.5,11.6 Z" id="Oval" fill="#5630FF" fill-rule="nonzero"></path>
                    </g>
                </g>
            </g>
        </g>
    </g>
</svg>