<?xml version="1.0" encoding="UTF-8"?>
<svg width="24px" height="24px" viewBox="0 0 24 24" version="1.1" xmlns="http://www.w3.org/2000/svg" xmlns:xlink="http://www.w3.org/1999/xlink">
    <!-- Generator: Sketch 55.2 (78181) - https://sketchapp.com -->
    <title>tech</title>
    <desc>Created with Sketch.</desc>
    <g id="Desktop" stroke="none" stroke-width="1" fill="none" fill-rule="evenodd">
        <g id="1-1-Homepage" transform="translate(-234.000000, -2241.000000)">
            <g id="Section-02" transform="translate(214.000000, 2088.000000)">
                <g id="tech" transform="translate(21.000000, 154.000000)">
                    <g id="ai">
                        <path d="M8,2 L8,0 C8,-0.55228475 7.55228475,-1 7,-1 C6.44771525,-1 6,-0.55228475 6,0 L6,2 C6,2.55228475 6.44771525,3 7,3 C7.55228475,3 8,2.55228475 8,2 Z" id="Path" fill="#5630FF" fill-rule="nonzero"></path>
                        <path d="M16,2 L16,0 C16,-0.55228475 15.5522847,-1 15,-1 C14.4477153,-1 14,-0.55228475 14,0 L14,2 C14,2.55228475 14.4477153,3 15,3 C15.5522847,3 16,2.55228475 16,2 Z" id="Path" fill="#5630FF" fill-rule="nonzero"></path>
                        <path d="M12,2 L12,0 C12,-0.55228475 11.5522847,-1 11,-1 C10.4477153,-1 10,-0.55228475 10,0 L10,2 C10,2.55228475 10.4477153,3 11,3 C11.5522847,3 12,2.55228475 12,2 Z" id="Path" fill="#5630FF" fill-rule="nonzero"></path>
                        <path d="M22,14 L20,14 C19.4477153,14 19,14.4477153 19,15 C19,15.5522847 19.4477153,16 20,16 L22,16 C22.5522847,16 23,15.5522847 23,15 C23,14.4477153 22.5522847,14 22,14 Z" id="Path" fill="#5630FF" fill-rule="nonzero"></path>
                        <path d="M22,6 L20,6 C19.4477153,6 19,6.44771525 19,7 C19,7.55228475 19.4477153,8 20,8 L22,8 C22.5522847,8 23,7.55228475 23,7 C23,6.44771525 22.5522847,6 22,6 Z" id="Path" fill="#5630FF" fill-rule="nonzero"></path>
                        <path d="M22,10 L20,10 C19.4477153,10 19,10.4477153 19,11 C19,11.5522847 19.4477153,12 20,12 L22,12 C22.5522847,12 23,11.5522847 23,11 C23,10.4477153 22.5522847,10 22,10 Z" id="Path" fill="#5630FF" fill-rule="nonzero"></path>
                        <path d="M2,14 L0,14 C-0.55228475,14 -1,14.4477153 -1,15 C-1,15.5522847 -0.55228475,16 0,16 L2,16 C2.55228475,16 3,15.5522847 3,15 C3,14.4477153 2.55228475,14 2,14 Z" id="Path" fill="#5630FF" fill-rule="nonzero"></path>
                        <path d="M2,6 L0,6 C-0.55228475,6 -1,6.44771525 -1,7 C-1,7.55228475 -0.55228475,8 0,8 L2,8 C2.55228475,8 3,7.55228475 3,7 C3,6.44771525 2.55228475,6 2,6 Z" id="Path" fill="#5630FF" fill-rule="nonzero"></path>
                        <path d="M2,10 L0,10 C-0.55228475,10 -1,10.4477153 -1,11 C-1,11.5522847 -0.55228475,12 0,12 L2,12 C2.55228475,12 3,11.5522847 3,11 C3,10.4477153 2.55228475,10 2,10 Z" id="Path" fill="#5630FF" fill-rule="nonzero"></path>
                        <path d="M8,22 L8,20 C8,19.4477153 7.55228475,19 7,19 C6.44771525,19 6,19.4477153 6,20 L6,22 C6,22.5522847 6.44771525,23 7,23 C7.55228475,23 8,22.5522847 8,22 Z" id="Path" fill="#5630FF" fill-rule="nonzero"></path>
                        <path d="M16,22 L16,20 C16,19.4477153 15.5522847,19 15,19 C14.4477153,19 14,19.4477153 14,20 L14,22 C14,22.5522847 14.4477153,23 15,23 C15.5522847,23 16,22.5522847 16,22 Z" id="Path" fill="#5630FF" fill-rule="nonzero"></path>
                        <path d="M12,22 L12,20 C12,19.4477153 11.5522847,19 11,19 C10.4477153,19 10,19.4477153 10,20 L10,22 C10,22.5522847 10.4477153,23 11,23 C11.5522847,23 12,22.5522847 12,22 Z" id="Path" fill="#5630FF" fill-rule="nonzero"></path>
                        <path d="M4,1 L18,1 C19.6568542,1 21,2.34314575 21,4 L21,18 C21,19.6568542 19.6568542,21 18,21 L4,21 C2.34314575,21 1,19.6568542 1,18 L1,4 C1,2.34314575 2.34314575,1 4,1 Z M4,3 C3.44771525,3 3,3.44771525 3,4 L3,18 C3,18.5522847 3.44771525,19 4,19 L18,19 C18.5522847,19 19,18.5522847 19,18 L19,4 C19,3.44771525 18.5522847,3 18,3 L4,3 Z" id="Rectangle" fill="#5630FF" fill-rule="nonzero"></path>
                        <path d="M9,5 L13,5 C15.209139,5 17,6.790861 17,9 L17,13 C17,15.209139 15.209139,17 13,17 L9,17 C6.790861,17 5,15.209139 5,13 L5,9 C5,6.790861 6.790861,5 9,5 Z M9,7 C7.8954305,7 7,7.8954305 7,9 L7,13 C7,14.1045695 7.8954305,15 9,15 L13,15 C14.1045695,15 15,14.1045695 15,13 L15,9 C15,7.8954305 14.1045695,7 13,7 L9,7 Z" id="Rectangle" fill="#9D86FF" fill-rule="nonzero"></path>
                    </g>
                </g>
            </g>
        </g>
    </g>
</svg>