<?xml version="1.0" encoding="UTF-8"?>
<svg width="20px" height="20px" viewBox="0 0 20 20" version="1.1" xmlns="http://www.w3.org/2000/svg" xmlns:xlink="http://www.w3.org/1999/xlink">
    <!-- Generator: Sketch 55.2 (78181) - https://sketchapp.com -->
    <title>upload-data</title>
    <desc>Created with Sketch.</desc>
    <g id="Desktop" stroke="none" stroke-width="1" fill="none" fill-rule="evenodd">
        <g id="1-1-Homepage" transform="translate(-236.000000, -5863.000000)">
            <g id="Section-06" transform="translate(215.000000, 5617.000000)">
                <g id="upload-data" transform="translate(22.000000, 247.000000)">
                    <g id="Path">
                        <path d="M10,12.3900692 L10,5.60993084 C10,5.05764609 9.55228475,4.60993084 9,4.60993084 C8.44771525,4.60993084 8,5.05764609 8,5.60993084 L8,12.3900692 C8,12.9423539 8.44771525,13.3900692 9,13.3900692 C9.55228475,13.3900692 10,12.9423539 10,12.3900692 Z" fill="#9D86FF" fill-rule="nonzero"></path>
                        <path d="M12.2303932,10.2545376 C12.6209175,10.6450619 13.2540825,10.6450619 13.6446068,10.2545376 C14.0351311,9.86401333 14.0351311,9.23084835 13.6446068,8.84032406 L9.70710678,4.90282406 C9.31658249,4.51229977 8.68341751,4.51229977 8.29289322,4.90282406 L4.35539322,8.84032406 C3.96486893,9.23084835 3.96486893,9.86401333 4.35539322,10.2545376 C4.74591751,10.6450619 5.37908249,10.6450619 5.76960678,10.2545376 L9,7.02414441 L12.2303932,10.2545376 Z" fill="#9D86FF" fill-rule="nonzero"></path>
                        <path d="M1.5625,1.5625 L2.8125,1.5625 C3.36478475,1.5625 3.8125,1.11478475 3.8125,0.5625 C3.8125,0.0102152502 3.36478475,-0.4375 2.8125,-0.4375 L0.5625,-0.4375 C0.0102152502,-0.4375 -0.4375,0.0102152502 -0.4375,0.5625 L-0.4375,2.8125 C-0.4375,3.36478475 0.0102152502,3.8125 0.5625,3.8125 C1.11478475,3.8125 1.5625,3.36478475 1.5625,2.8125 L1.5625,1.5625 Z" fill="#5630FF" fill-rule="nonzero"></path>
                        <path d="M7.3125,1.5625 L10.6875,1.5625 C11.2397847,1.5625 11.6875,1.11478475 11.6875,0.5625 C11.6875,0.0102152502 11.2397847,-0.4375 10.6875,-0.4375 L7.3125,-0.4375 C6.76021525,-0.4375 6.3125,0.0102152502 6.3125,0.5625 C6.3125,1.11478475 6.76021525,1.5625 7.3125,1.5625 Z" fill="#5630FF" fill-rule="nonzero"></path>
                        <path d="M16.4375,1.5625 L16.4375,2.8125 C16.4375,3.36478475 16.8852153,3.8125 17.4375,3.8125 C17.9897847,3.8125 18.4375,3.36478475 18.4375,2.8125 L18.4375,0.5625 C18.4375,0.0102152502 17.9897847,-0.4375 17.4375,-0.4375 L15.1875,-0.4375 C14.6352153,-0.4375 14.1875,0.0102152502 14.1875,0.5625 C14.1875,1.11478475 14.6352153,1.5625 15.1875,1.5625 L16.4375,1.5625 Z" fill="#5630FF" fill-rule="nonzero"></path>
                        <path d="M16.4375,16.4375 L15.1875,16.4375 C14.6352153,16.4375 14.1875,16.8852153 14.1875,17.4375 C14.1875,17.9897847 14.6352153,18.4375 15.1875,18.4375 L17.4375,18.4375 C17.9897847,18.4375 18.4375,17.9897847 18.4375,17.4375 L18.4375,15.1875 C18.4375,14.6352153 17.9897847,14.1875 17.4375,14.1875 C16.8852153,14.1875 16.4375,14.6352153 16.4375,15.1875 L16.4375,16.4375 Z" fill="#5630FF" fill-rule="nonzero"></path>
                        <path d="M10.6875,16.4375 L7.3125,16.4375 C6.76021525,16.4375 6.3125,16.8852153 6.3125,17.4375 C6.3125,17.9897847 6.76021525,18.4375 7.3125,18.4375 L10.6875,18.4375 C11.2397847,18.4375 11.6875,17.9897847 11.6875,17.4375 C11.6875,16.8852153 11.2397847,16.4375 10.6875,16.4375 Z" fill="#5630FF" fill-rule="nonzero"></path>
                        <path d="M1.5625,16.4375 L1.5625,15.1875 C1.5625,14.6352153 1.11478475,14.1875 0.5625,14.1875 C0.0102152502,14.1875 -0.4375,14.6352153 -0.4375,15.1875 L-0.4375,17.4375 C-0.4375,17.9897847 0.0102152502,18.4375 0.5625,18.4375 L2.8125,18.4375 C3.36478475,18.4375 3.8125,17.9897847 3.8125,17.4375 C3.8125,16.8852153 3.36478475,16.4375 2.8125,16.4375 L1.5625,16.4375 Z" fill="#5630FF" fill-rule="nonzero"></path>
                        <path d="M-0.4375,7.3125 L-0.4375,10.6875 C-0.4375,11.2397847 0.0102152502,11.6875 0.5625,11.6875 C1.11478475,11.6875 1.5625,11.2397847 1.5625,10.6875 L1.5625,7.3125 C1.5625,6.76021525 1.11478475,6.3125 0.5625,6.3125 C0.0102152502,6.3125 -0.4375,6.76021525 -0.4375,7.3125 Z" fill="#5630FF" fill-rule="nonzero"></path>
                        <path d="M16.4375,7.3125 L16.4375,10.6875 C16.4375,11.2397847 16.8852153,11.6875 17.4375,11.6875 C17.9897847,11.6875 18.4375,11.2397847 18.4375,10.6875 L18.4375,7.3125 C18.4375,6.76021525 17.9897847,6.3125 17.4375,6.3125 C16.8852153,6.3125 16.4375,6.76021525 16.4375,7.3125 Z" fill="#5630FF" fill-rule="nonzero"></path>
                    </g>
                </g>
            </g>
        </g>
    </g>
</svg>